{"glyphs":{"0":{"ha":922,"x_min":0,"x_max":0,"o":"m 65 500 b 461 1016 65 835 205 1016 b 856 500 717 1016 856 835 b 461 -16 856 165 717 -16 b 65 500 205 -16 65 165 m 191 500 b 461 89 191 229 288 89 b 731 500 633 89 731 229 b 461 907 731 772 633 907 b 191 500 288 907 191 772 "},"1":{"ha":615,"x_min":0,"x_max":0,"o":"m 60 817 l 154 817 b 368 983 319 817 368 866 l 368 1000 l 484 1000 l 484 0 l 362 0 l 362 724 l 60 724 "},"2":{"ha":876,"x_min":0,"x_max":0,"o":"m 100 726 b 452 1017 108 910 244 1017 b 784 737 659 1017 784 910 b 529 343 784 567 672 468 l 263 106 l 792 106 l 792 0 l 85 0 l 85 88 l 467 437 b 660 732 584 544 660 617 b 451 911 660 843 584 911 b 219 706 316 911 223 845 l 100 706 l 100 726 "},"3":{"ha":884,"x_min":0,"x_max":0,"o":"m 800 1000 l 800 908 l 448 603 l 471 603 b 800 309 665 603 800 504 b 441 -17 799 109 667 -17 b 72 281 216 -17 75 109 l 72 301 l 188 301 b 440 89 192 176 288 89 b 678 308 593 89 678 176 b 428 512 679 440 588 512 l 299 512 l 299 603 l 633 894 l 108 894 l 108 1000 "},"4":{"ha":901,"x_min":0,"x_max":0,"o":"m 44 357 l 531 1000 l 698 1000 l 698 367 l 855 367 l 855 264 l 698 264 l 698 0 l 575 0 l 575 264 l 44 264 m 575 367 l 575 880 l 564 880 l 173 367 "},"5":{"ha":877,"x_min":0,"x_max":0,"o":"m 760 1000 l 760 894 l 271 894 l 238 583 l 249 583 b 475 674 281 622 346 674 b 802 338 669 674 802 544 b 437 -17 802 128 672 -17 b 81 261 202 -17 87 126 l 81 282 l 199 282 b 436 89 203 185 281 89 b 681 333 592 89 681 188 b 446 569 681 473 591 569 b 222 417 326 569 251 500 l 104 417 l 164 1000 "},"6":{"ha":893,"x_min":0,"x_max":0,"o":"m 827 326 b 467 -16 827 128 690 -16 b 78 469 238 -16 78 122 b 477 1016 78 869 244 1016 b 803 757 703 1016 791 878 l 803 736 l 689 736 b 479 912 679 824 626 912 b 199 510 316 912 203 803 l 210 510 b 490 658 247 583 332 658 b 827 326 690 658 827 528 m 225 322 b 467 89 225 179 324 89 b 707 322 610 89 707 179 b 467 556 707 465 610 556 b 225 322 324 556 225 465 "},"7":{"ha":867,"x_min":0,"x_max":0,"o":"m 798 1000 l 798 906 l 345 0 l 217 0 l 217 21 l 659 894 l 73 894 l 73 1000 "},"8":{"ha":894,"x_min":0,"x_max":0,"o":"m 96 752 b 447 1019 96 914 227 1019 b 799 752 667 1019 799 914 b 633 524 799 600 695 540 l 633 513 b 826 266 699 495 826 436 b 447 -19 826 92 681 -19 b 69 266 214 -19 69 92 b 261 513 69 436 194 495 l 261 524 b 96 752 199 541 96 600 m 192 273 b 447 85 192 156 290 85 b 703 273 605 85 703 156 b 447 462 703 390 605 462 b 192 273 290 462 192 390 m 215 740 b 447 565 215 631 303 565 b 679 740 592 565 679 631 b 447 916 679 850 592 916 b 215 740 303 916 215 850 "},"9":{"ha":893,"x_min":0,"x_max":0,"o":"m 66 674 b 426 1016 66 872 203 1016 b 815 531 656 1016 815 878 b 416 -16 815 131 649 -16 b 90 243 190 -16 102 122 l 90 264 l 204 264 b 414 88 214 176 267 88 b 694 490 577 88 690 197 l 683 490 b 403 342 647 417 561 342 b 66 674 203 342 66 472 m 186 678 b 426 444 186 535 283 444 b 668 678 569 444 668 535 b 426 911 668 821 569 911 b 186 678 283 911 186 821 "},"\r":{"ha":0,"x_min":0,"x_max":0,"o":""}," ":{"ha":501,"x_min":0,"x_max":0,"o":""},"A":{"ha":943,"x_min":0,"x_max":0,"o":"m 554 1000 l 908 21 l 908 0 l 782 0 l 680 287 l 260 287 l 158 0 l 36 0 l 36 21 l 389 1000 m 645 397 l 475 875 l 464 875 l 294 397 "},"Á":{"ha":943,"x_min":0,"x_max":0,"o":"m 554 1000 l 908 21 l 908 0 l 782 0 l 680 287 l 260 287 l 158 0 l 36 0 l 36 21 l 389 1000 m 645 397 l 475 875 l 464 875 l 294 397 "},"Ă":{"ha":943,"x_min":0,"x_max":0,"o":"m 554 1000 l 908 21 l 908 0 l 782 0 l 680 287 l 260 287 l 158 0 l 36 0 l 36 21 l 389 1000 m 645 397 l 475 875 l 464 875 l 294 397 "},"Ắ":{"ha":943,"x_min":0,"x_max":0,"o":"m 554 1000 l 908 21 l 908 0 l 782 0 l 680 287 l 260 287 l 158 0 l 36 0 l 36 21 l 389 1000 m 645 397 l 475 875 l 464 875 l 294 397 "},"Ặ":{"ha":943,"x_min":0,"x_max":0,"o":"m 554 1000 l 908 21 l 908 0 l 782 0 l 680 287 l 260 287 l 158 0 l 36 0 l 36 21 l 389 1000 m 645 397 l 475 875 l 464 875 l 294 397 "},"Ằ":{"ha":943,"x_min":0,"x_max":0,"o":"m 554 1000 l 908 21 l 908 0 l 782 0 l 680 287 l 260 287 l 158 0 l 36 0 l 36 21 l 389 1000 m 645 397 l 475 875 l 464 875 l 294 397 "},"Ẳ":{"ha":943,"x_min":0,"x_max":0,"o":"m 554 1000 l 908 21 l 908 0 l 782 0 l 680 287 l 260 287 l 158 0 l 36 0 l 36 21 l 389 1000 m 645 397 l 475 875 l 464 875 l 294 397 "},"Ẵ":{"ha":943,"x_min":0,"x_max":0,"o":"m 554 1000 l 908 21 l 908 0 l 782 0 l 680 287 l 260 287 l 158 0 l 36 0 l 36 21 l 389 1000 m 645 397 l 475 875 l 464 875 l 294 397 "},"Â":{"ha":943,"x_min":0,"x_max":0,"o":"m 554 1000 l 908 21 l 908 0 l 782 0 l 680 287 l 260 287 l 158 0 l 36 0 l 36 21 l 389 1000 m 645 397 l 475 875 l 464 875 l 294 397 "},"Ấ":{"ha":943,"x_min":0,"x_max":0,"o":"m 554 1000 l 908 21 l 908 0 l 782 0 l 680 287 l 260 287 l 158 0 l 36 0 l 36 21 l 389 1000 m 645 397 l 475 875 l 464 875 l 294 397 "},"Ậ":{"ha":943,"x_min":0,"x_max":0,"o":"m 554 1000 l 908 21 l 908 0 l 782 0 l 680 287 l 260 287 l 158 0 l 36 0 l 36 21 l 389 1000 m 645 397 l 475 875 l 464 875 l 294 397 "},"Ầ":{"ha":943,"x_min":0,"x_max":0,"o":"m 554 1000 l 908 21 l 908 0 l 782 0 l 680 287 l 260 287 l 158 0 l 36 0 l 36 21 l 389 1000 m 645 397 l 475 875 l 464 875 l 294 397 "},"Ẩ":{"ha":943,"x_min":0,"x_max":0,"o":"m 554 1000 l 908 21 l 908 0 l 782 0 l 680 287 l 260 287 l 158 0 l 36 0 l 36 21 l 389 1000 m 645 397 l 475 875 l 464 875 l 294 397 "},"Ẫ":{"ha":943,"x_min":0,"x_max":0,"o":"m 554 1000 l 908 21 l 908 0 l 782 0 l 680 287 l 260 287 l 158 0 l 36 0 l 36 21 l 389 1000 m 645 397 l 475 875 l 464 875 l 294 397 "},"Ȁ":{"ha":943,"x_min":0,"x_max":0,"o":"m 554 1000 l 908 21 l 908 0 l 782 0 l 680 287 l 260 287 l 158 0 l 36 0 l 36 21 l 389 1000 m 645 397 l 475 875 l 464 875 l 294 397 "},"Ä":{"ha":943,"x_min":0,"x_max":0,"o":"m 554 1000 l 908 21 l 908 0 l 782 0 l 680 287 l 260 287 l 158 0 l 36 0 l 36 21 l 389 1000 m 645 397 l 475 875 l 464 875 l 294 397 "},"Ạ":{"ha":943,"x_min":0,"x_max":0,"o":"m 554 1000 l 908 21 l 908 0 l 782 0 l 680 287 l 260 287 l 158 0 l 36 0 l 36 21 l 389 1000 m 645 397 l 475 875 l 464 875 l 294 397 "},"À":{"ha":943,"x_min":0,"x_max":0,"o":"m 554 1000 l 908 21 l 908 0 l 782 0 l 680 287 l 260 287 l 158 0 l 36 0 l 36 21 l 389 1000 m 645 397 l 475 875 l 464 875 l 294 397 "},"Ả":{"ha":943,"x_min":0,"x_max":0,"o":"m 554 1000 l 908 21 l 908 0 l 782 0 l 680 287 l 260 287 l 158 0 l 36 0 l 36 21 l 389 1000 m 645 397 l 475 875 l 464 875 l 294 397 "},"Ȃ":{"ha":943,"x_min":0,"x_max":0,"o":"m 554 1000 l 908 21 l 908 0 l 782 0 l 680 287 l 260 287 l 158 0 l 36 0 l 36 21 l 389 1000 m 645 397 l 475 875 l 464 875 l 294 397 "},"Ā":{"ha":943,"x_min":0,"x_max":0,"o":"m 554 1000 l 908 21 l 908 0 l 782 0 l 680 287 l 260 287 l 158 0 l 36 0 l 36 21 l 389 1000 m 645 397 l 475 875 l 464 875 l 294 397 "},"Ą":{"ha":943,"x_min":0,"x_max":0,"o":"m 554 1000 l 908 21 l 908 0 l 782 0 l 680 287 l 260 287 l 158 0 l 36 0 l 36 21 l 389 1000 m 645 397 l 475 875 l 464 875 l 294 397 "},"Å":{"ha":943,"x_min":0,"x_max":0,"o":"m 554 1000 l 908 21 l 908 0 l 782 0 l 680 287 l 260 287 l 158 0 l 36 0 l 36 21 l 389 1000 m 645 397 l 475 875 l 464 875 l 294 397 "},"Ǻ":{"ha":943,"x_min":0,"x_max":0,"o":"m 554 1000 l 908 21 l 908 0 l 782 0 l 680 287 l 260 287 l 158 0 l 36 0 l 36 21 l 389 1000 m 645 397 l 475 875 l 464 875 l 294 397 "},"Ã":{"ha":943,"x_min":0,"x_max":0,"o":"m 554 1000 l 908 21 l 908 0 l 782 0 l 680 287 l 260 287 l 158 0 l 36 0 l 36 21 l 389 1000 m 645 397 l 475 875 l 464 875 l 294 397 "},"Æ":{"ha":943,"x_min":0,"x_max":0,"o":"m 554 1000 l 908 21 l 908 0 l 782 0 l 680 287 l 260 287 l 158 0 l 36 0 l 36 21 l 389 1000 m 645 397 l 475 875 l 464 875 l 294 397 "},"Ǽ":{"ha":943,"x_min":0,"x_max":0,"o":"m 554 1000 l 908 21 l 908 0 l 782 0 l 680 287 l 260 287 l 158 0 l 36 0 l 36 21 l 389 1000 m 645 397 l 475 875 l 464 875 l 294 397 "},"B":{"ha":928,"x_min":0,"x_max":0,"o":"m 541 1000 b 851 748 719 1000 851 917 b 688 522 851 588 747 535 l 688 511 b 869 272 751 497 869 446 b 546 0 869 88 728 0 l 107 0 l 107 1000 l 541 1000 m 532 108 b 744 281 655 108 744 156 b 532 454 744 407 655 454 l 233 454 l 233 108 m 525 562 b 728 727 640 562 728 606 b 525 892 728 849 640 892 l 233 892 l 233 562 "},"C":{"ha":983,"x_min":0,"x_max":0,"o":"m 60 500 b 519 1018 60 833 236 1018 b 928 689 801 1018 919 840 l 928 668 l 809 668 b 522 908 803 774 731 908 b 189 500 310 908 189 760 b 522 92 189 240 310 92 b 813 339 731 92 803 230 l 931 339 l 931 318 b 519 -18 921 163 803 -18 b 60 500 236 -18 60 167 "},"Ć":{"ha":983,"x_min":0,"x_max":0,"o":"m 60 500 b 519 1018 60 833 236 1018 b 928 689 801 1018 919 840 l 928 668 l 809 668 b 522 908 803 774 731 908 b 189 500 310 908 189 760 b 522 92 189 240 310 92 b 813 339 731 92 803 230 l 931 339 l 931 318 b 519 -18 921 163 803 -18 b 60 500 236 -18 60 167 "},"Č":{"ha":983,"x_min":0,"x_max":0,"o":"m 60 500 b 519 1018 60 833 236 1018 b 928 689 801 1018 919 840 l 928 668 l 809 668 b 522 908 803 774 731 908 b 189 500 310 908 189 760 b 522 92 189 240 310 92 b 813 339 731 92 803 230 l 931 339 l 931 318 b 519 -18 921 163 803 -18 b 60 500 236 -18 60 167 "},"Ç":{"ha":983,"x_min":0,"x_max":0,"o":"m 60 500 b 519 1018 60 833 236 1018 b 928 689 801 1018 919 840 l 928 668 l 809 668 b 522 908 803 774 731 908 b 189 500 310 908 189 760 b 522 92 189 240 310 92 b 813 339 731 92 803 230 l 931 339 l 931 318 b 519 -18 921 163 803 -18 b 60 500 236 -18 60 167 "},"Ḉ":{"ha":983,"x_min":0,"x_max":0,"o":"m 60 500 b 519 1018 60 833 236 1018 b 928 689 801 1018 919 840 l 928 668 l 809 668 b 522 908 803 774 731 908 b 189 500 310 908 189 760 b 522 92 189 240 310 92 b 813 339 731 92 803 230 l 931 339 l 931 318 b 519 -18 921 163 803 -18 b 60 500 236 -18 60 167 "},"Ĉ":{"ha":983,"x_min":0,"x_max":0,"o":"m 60 500 b 519 1018 60 833 236 1018 b 928 689 801 1018 919 840 l 928 668 l 809 668 b 522 908 803 774 731 908 b 189 500 310 908 189 760 b 522 92 189 240 310 92 b 813 339 731 92 803 230 l 931 339 l 931 318 b 519 -18 921 163 803 -18 b 60 500 236 -18 60 167 "},"Ċ":{"ha":983,"x_min":0,"x_max":0,"o":"m 60 500 b 519 1018 60 833 236 1018 b 928 689 801 1018 919 840 l 928 668 l 809 668 b 522 908 803 774 731 908 b 189 500 310 908 189 760 b 522 92 189 240 310 92 b 813 339 731 92 803 230 l 931 339 l 931 318 b 519 -18 921 163 803 -18 b 60 500 236 -18 60 167 "},"D":{"ha":974,"x_min":0,"x_max":0,"o":"m 442 1000 b 919 500 731 1000 919 813 b 442 0 919 188 731 0 l 105 0 l 105 1000 l 442 1000 m 437 110 b 791 500 650 110 791 248 b 437 890 791 752 650 890 l 232 890 l 232 110 "},"Ð":{"ha":974,"x_min":0,"x_max":0,"o":"m 442 1000 b 919 500 731 1000 919 813 b 442 0 919 188 731 0 l 105 0 l 105 1000 l 442 1000 m 437 110 b 791 500 650 110 791 248 b 437 890 791 752 650 890 l 232 890 l 232 110 "},"Ď":{"ha":974,"x_min":0,"x_max":0,"o":"m 442 1000 b 919 500 731 1000 919 813 b 442 0 919 188 731 0 l 105 0 l 105 1000 l 442 1000 m 437 110 b 791 500 650 110 791 248 b 437 890 791 752 650 890 l 232 890 l 232 110 "},"Đ":{"ha":974,"x_min":0,"x_max":0,"o":"m 442 1000 b 919 500 731 1000 919 813 b 442 0 919 188 731 0 l 105 0 l 105 1000 l 442 1000 m 437 110 b 791 500 650 110 791 248 b 437 890 791 752 650 890 l 232 890 l 232 110 "},"Ḍ":{"ha":974,"x_min":0,"x_max":0,"o":"m 442 1000 b 919 500 731 1000 919 813 b 442 0 919 188 731 0 l 105 0 l 105 1000 l 442 1000 m 437 110 b 791 500 650 110 791 248 b 437 890 791 752 650 890 l 232 890 l 232 110 "},"Ḏ":{"ha":974,"x_min":0,"x_max":0,"o":"m 442 1000 b 919 500 731 1000 919 813 b 442 0 919 188 731 0 l 105 0 l 105 1000 l 442 1000 m 437 110 b 791 500 650 110 791 248 b 437 890 791 752 650 890 l 232 890 l 232 110 "},"E":{"ha":894,"x_min":0,"x_max":0,"o":"m 822 1000 l 822 892 l 248 892 l 248 559 l 752 559 l 752 451 l 248 451 l 248 108 l 831 108 l 831 0 l 122 0 l 122 1000 "},"É":{"ha":894,"x_min":0,"x_max":0,"o":"m 822 1000 l 822 892 l 248 892 l 248 559 l 752 559 l 752 451 l 248 451 l 248 108 l 831 108 l 831 0 l 122 0 l 122 1000 "},"Ĕ":{"ha":894,"x_min":0,"x_max":0,"o":"m 822 1000 l 822 892 l 248 892 l 248 559 l 752 559 l 752 451 l 248 451 l 248 108 l 831 108 l 831 0 l 122 0 l 122 1000 "},"Ě":{"ha":894,"x_min":0,"x_max":0,"o":"m 822 1000 l 822 892 l 248 892 l 248 559 l 752 559 l 752 451 l 248 451 l 248 108 l 831 108 l 831 0 l 122 0 l 122 1000 "},"Ḝ":{"ha":894,"x_min":0,"x_max":0,"o":"m 822 1000 l 822 892 l 248 892 l 248 559 l 752 559 l 752 451 l 248 451 l 248 108 l 831 108 l 831 0 l 122 0 l 122 1000 "},"Ê":{"ha":894,"x_min":0,"x_max":0,"o":"m 822 1000 l 822 892 l 248 892 l 248 559 l 752 559 l 752 451 l 248 451 l 248 108 l 831 108 l 831 0 l 122 0 l 122 1000 "},"Ế":{"ha":894,"x_min":0,"x_max":0,"o":"m 822 1000 l 822 892 l 248 892 l 248 559 l 752 559 l 752 451 l 248 451 l 248 108 l 831 108 l 831 0 l 122 0 l 122 1000 "},"Ệ":{"ha":894,"x_min":0,"x_max":0,"o":"m 822 1000 l 822 892 l 248 892 l 248 559 l 752 559 l 752 451 l 248 451 l 248 108 l 831 108 l 831 0 l 122 0 l 122 1000 "},"Ề":{"ha":894,"x_min":0,"x_max":0,"o":"m 822 1000 l 822 892 l 248 892 l 248 559 l 752 559 l 752 451 l 248 451 l 248 108 l 831 108 l 831 0 l 122 0 l 122 1000 "},"Ể":{"ha":894,"x_min":0,"x_max":0,"o":"m 822 1000 l 822 892 l 248 892 l 248 559 l 752 559 l 752 451 l 248 451 l 248 108 l 831 108 l 831 0 l 122 0 l 122 1000 "},"Ễ":{"ha":894,"x_min":0,"x_max":0,"o":"m 822 1000 l 822 892 l 248 892 l 248 559 l 752 559 l 752 451 l 248 451 l 248 108 l 831 108 l 831 0 l 122 0 l 122 1000 "},"Ȅ":{"ha":894,"x_min":0,"x_max":0,"o":"m 822 1000 l 822 892 l 248 892 l 248 559 l 752 559 l 752 451 l 248 451 l 248 108 l 831 108 l 831 0 l 122 0 l 122 1000 "},"Ë":{"ha":894,"x_min":0,"x_max":0,"o":"m 822 1000 l 822 892 l 248 892 l 248 559 l 752 559 l 752 451 l 248 451 l 248 108 l 831 108 l 831 0 l 122 0 l 122 1000 "},"Ė":{"ha":894,"x_min":0,"x_max":0,"o":"m 822 1000 l 822 892 l 248 892 l 248 559 l 752 559 l 752 451 l 248 451 l 248 108 l 831 108 l 831 0 l 122 0 l 122 1000 "},"Ẹ":{"ha":894,"x_min":0,"x_max":0,"o":"m 822 1000 l 822 892 l 248 892 l 248 559 l 752 559 l 752 451 l 248 451 l 248 108 l 831 108 l 831 0 l 122 0 l 122 1000 "},"È":{"ha":894,"x_min":0,"x_max":0,"o":"m 822 1000 l 822 892 l 248 892 l 248 559 l 752 559 l 752 451 l 248 451 l 248 108 l 831 108 l 831 0 l 122 0 l 122 1000 "},"Ẻ":{"ha":894,"x_min":0,"x_max":0,"o":"m 822 1000 l 822 892 l 248 892 l 248 559 l 752 559 l 752 451 l 248 451 l 248 108 l 831 108 l 831 0 l 122 0 l 122 1000 "},"Ȇ":{"ha":894,"x_min":0,"x_max":0,"o":"m 822 1000 l 822 892 l 248 892 l 248 559 l 752 559 l 752 451 l 248 451 l 248 108 l 831 108 l 831 0 l 122 0 l 122 1000 "},"Ē":{"ha":894,"x_min":0,"x_max":0,"o":"m 822 1000 l 822 892 l 248 892 l 248 559 l 752 559 l 752 451 l 248 451 l 248 108 l 831 108 l 831 0 l 122 0 l 122 1000 "},"Ḗ":{"ha":894,"x_min":0,"x_max":0,"o":"m 822 1000 l 822 892 l 248 892 l 248 559 l 752 559 l 752 451 l 248 451 l 248 108 l 831 108 l 831 0 l 122 0 l 122 1000 "},"Ḕ":{"ha":894,"x_min":0,"x_max":0,"o":"m 822 1000 l 822 892 l 248 892 l 248 559 l 752 559 l 752 451 l 248 451 l 248 108 l 831 108 l 831 0 l 122 0 l 122 1000 "},"Ę":{"ha":894,"x_min":0,"x_max":0,"o":"m 822 1000 l 822 892 l 248 892 l 248 559 l 752 559 l 752 451 l 248 451 l 248 108 l 831 108 l 831 0 l 122 0 l 122 1000 "},"Ẽ":{"ha":894,"x_min":0,"x_max":0,"o":"m 822 1000 l 822 892 l 248 892 l 248 559 l 752 559 l 752 451 l 248 451 l 248 108 l 831 108 l 831 0 l 122 0 l 122 1000 "},"F":{"ha":869,"x_min":0,"x_max":0,"o":"m 810 1000 l 810 892 l 254 892 l 254 550 l 753 550 l 753 442 l 254 442 l 254 0 l 128 0 l 128 1000 "},"G":{"ha":986,"x_min":0,"x_max":0,"o":"m 56 500 b 518 1018 56 831 233 1018 b 927 693 801 1018 916 838 l 927 672 l 809 672 b 519 909 801 774 730 909 b 185 500 307 909 185 759 b 518 91 185 240 306 91 b 813 391 732 91 808 239 l 478 391 l 478 496 l 937 496 l 937 453 b 516 -18 937 170 802 -18 b 56 500 233 -18 56 169 "},"Ğ":{"ha":986,"x_min":0,"x_max":0,"o":"m 56 500 b 518 1018 56 831 233 1018 b 927 693 801 1018 916 838 l 927 672 l 809 672 b 519 909 801 774 730 909 b 185 500 307 909 185 759 b 518 91 185 240 306 91 b 813 391 732 91 808 239 l 478 391 l 478 496 l 937 496 l 937 453 b 516 -18 937 170 802 -18 b 56 500 233 -18 56 169 "},"Ǧ":{"ha":986,"x_min":0,"x_max":0,"o":"m 56 500 b 518 1018 56 831 233 1018 b 927 693 801 1018 916 838 l 927 672 l 809 672 b 519 909 801 774 730 909 b 185 500 307 909 185 759 b 518 91 185 240 306 91 b 813 391 732 91 808 239 l 478 391 l 478 496 l 937 496 l 937 453 b 516 -18 937 170 802 -18 b 56 500 233 -18 56 169 "},"Ĝ":{"ha":986,"x_min":0,"x_max":0,"o":"m 56 500 b 518 1018 56 831 233 1018 b 927 693 801 1018 916 838 l 927 672 l 809 672 b 519 909 801 774 730 909 b 185 500 307 909 185 759 b 518 91 185 240 306 91 b 813 391 732 91 808 239 l 478 391 l 478 496 l 937 496 l 937 453 b 516 -18 937 170 802 -18 b 56 500 233 -18 56 169 "},"Ģ":{"ha":986,"x_min":0,"x_max":0,"o":"m 56 500 b 518 1018 56 831 233 1018 b 927 693 801 1018 916 838 l 927 672 l 809 672 b 519 909 801 774 730 909 b 185 500 307 909 185 759 b 518 91 185 240 306 91 b 813 391 732 91 808 239 l 478 391 l 478 496 l 937 496 l 937 453 b 516 -18 937 170 802 -18 b 56 500 233 -18 56 169 "},"Ġ":{"ha":986,"x_min":0,"x_max":0,"o":"m 56 500 b 518 1018 56 831 233 1018 b 927 693 801 1018 916 838 l 927 672 l 809 672 b 519 909 801 774 730 909 b 185 500 307 909 185 759 b 518 91 185 240 306 91 b 813 391 732 91 808 239 l 478 391 l 478 496 l 937 496 l 937 453 b 516 -18 937 170 802 -18 b 56 500 233 -18 56 169 "},"Ḡ":{"ha":986,"x_min":0,"x_max":0,"o":"m 56 500 b 518 1018 56 831 233 1018 b 927 693 801 1018 916 838 l 927 672 l 809 672 b 519 909 801 774 730 909 b 185 500 307 909 185 759 b 518 91 185 240 306 91 b 813 391 732 91 808 239 l 478 391 l 478 496 l 937 496 l 937 453 b 516 -18 937 170 802 -18 b 56 500 233 -18 56 169 "},"H":{"ha":967,"x_min":0,"x_max":0,"o":"m 230 1000 l 230 559 l 737 559 l 737 1000 l 864 1000 l 864 0 l 737 0 l 737 447 l 230 447 l 230 0 l 103 0 l 103 1000 "},"Ħ":{"ha":967,"x_min":0,"x_max":0,"o":"m 230 1000 l 230 559 l 737 559 l 737 1000 l 864 1000 l 864 0 l 737 0 l 737 447 l 230 447 l 230 0 l 103 0 l 103 1000 "},"Ḫ":{"ha":967,"x_min":0,"x_max":0,"o":"m 230 1000 l 230 559 l 737 559 l 737 1000 l 864 1000 l 864 0 l 737 0 l 737 447 l 230 447 l 230 0 l 103 0 l 103 1000 "},"Ĥ":{"ha":967,"x_min":0,"x_max":0,"o":"m 230 1000 l 230 559 l 737 559 l 737 1000 l 864 1000 l 864 0 l 737 0 l 737 447 l 230 447 l 230 0 l 103 0 l 103 1000 "},"Ḥ":{"ha":967,"x_min":0,"x_max":0,"o":"m 230 1000 l 230 559 l 737 559 l 737 1000 l 864 1000 l 864 0 l 737 0 l 737 447 l 230 447 l 230 0 l 103 0 l 103 1000 "},"I":{"ha":635,"x_min":0,"x_max":0,"o":"m 523 895 l 381 895 l 381 105 l 523 105 l 523 0 l 113 0 l 113 105 l 253 105 l 253 895 l 113 895 l 113 1000 l 523 1000 "},"Ĳ":{"ha":857,"x_min":0,"x_max":0,"o":"m 732 1000 l 732 308 b 397 -17 732 105 624 -17 b 56 285 169 -17 58 104 l 56 306 l 180 306 b 393 94 180 178 244 94 b 604 311 542 94 604 178 l 604 1000 "},"Í":{"ha":635,"x_min":0,"x_max":0,"o":"m 523 895 l 381 895 l 381 105 l 523 105 l 523 0 l 113 0 l 113 105 l 253 105 l 253 895 l 113 895 l 113 1000 l 523 1000 "},"Ĭ":{"ha":635,"x_min":0,"x_max":0,"o":"m 523 895 l 381 895 l 381 105 l 523 105 l 523 0 l 113 0 l 113 105 l 253 105 l 253 895 l 113 895 l 113 1000 l 523 1000 "},"Î":{"ha":635,"x_min":0,"x_max":0,"o":"m 523 895 l 381 895 l 381 105 l 523 105 l 523 0 l 113 0 l 113 105 l 253 105 l 253 895 l 113 895 l 113 1000 l 523 1000 "},"Ȉ":{"ha":635,"x_min":0,"x_max":0,"o":"m 523 895 l 381 895 l 381 105 l 523 105 l 523 0 l 113 0 l 113 105 l 253 105 l 253 895 l 113 895 l 113 1000 l 523 1000 "},"Ï":{"ha":635,"x_min":0,"x_max":0,"o":"m 523 895 l 381 895 l 381 105 l 523 105 l 523 0 l 113 0 l 113 105 l 253 105 l 253 895 l 113 895 l 113 1000 l 523 1000 "},"Ḯ":{"ha":635,"x_min":0,"x_max":0,"o":"m 523 895 l 381 895 l 381 105 l 523 105 l 523 0 l 113 0 l 113 105 l 253 105 l 253 895 l 113 895 l 113 1000 l 523 1000 "},"İ":{"ha":635,"x_min":0,"x_max":0,"o":"m 523 895 l 381 895 l 381 105 l 523 105 l 523 0 l 113 0 l 113 105 l 253 105 l 253 895 l 113 895 l 113 1000 l 523 1000 "},"Ị":{"ha":635,"x_min":0,"x_max":0,"o":"m 523 895 l 381 895 l 381 105 l 523 105 l 523 0 l 113 0 l 113 105 l 253 105 l 253 895 l 113 895 l 113 1000 l 523 1000 "},"Ì":{"ha":635,"x_min":0,"x_max":0,"o":"m 523 895 l 381 895 l 381 105 l 523 105 l 523 0 l 113 0 l 113 105 l 253 105 l 253 895 l 113 895 l 113 1000 l 523 1000 "},"Ỉ":{"ha":635,"x_min":0,"x_max":0,"o":"m 523 895 l 381 895 l 381 105 l 523 105 l 523 0 l 113 0 l 113 105 l 253 105 l 253 895 l 113 895 l 113 1000 l 523 1000 "},"Ȋ":{"ha":635,"x_min":0,"x_max":0,"o":"m 523 895 l 381 895 l 381 105 l 523 105 l 523 0 l 113 0 l 113 105 l 253 105 l 253 895 l 113 895 l 113 1000 l 523 1000 "},"Ī":{"ha":635,"x_min":0,"x_max":0,"o":"m 523 895 l 381 895 l 381 105 l 523 105 l 523 0 l 113 0 l 113 105 l 253 105 l 253 895 l 113 895 l 113 1000 l 523 1000 "},"Į":{"ha":635,"x_min":0,"x_max":0,"o":"m 523 895 l 381 895 l 381 105 l 523 105 l 523 0 l 113 0 l 113 105 l 253 105 l 253 895 l 113 895 l 113 1000 l 523 1000 "},"Ĩ":{"ha":635,"x_min":0,"x_max":0,"o":"m 523 895 l 381 895 l 381 105 l 523 105 l 523 0 l 113 0 l 113 105 l 253 105 l 253 895 l 113 895 l 113 1000 l 523 1000 "},"J":{"ha":857,"x_min":0,"x_max":0,"o":"m 732 1000 l 732 308 b 397 -17 732 105 624 -17 b 56 285 169 -17 58 104 l 56 306 l 180 306 b 393 94 180 178 244 94 b 604 311 542 94 604 178 l 604 1000 "},"Ĵ":{"ha":857,"x_min":0,"x_max":0,"o":"m 732 1000 l 732 308 b 397 -17 732 105 624 -17 b 56 285 169 -17 58 104 l 56 306 l 180 306 b 393 94 180 178 244 94 b 604 311 542 94 604 178 l 604 1000 "},"K":{"ha":931,"x_min":0,"x_max":0,"o":"m 234 1000 l 234 564 l 245 564 l 731 1000 l 877 1000 l 877 979 l 353 511 l 892 21 l 892 0 l 740 0 l 245 449 l 234 449 l 234 0 l 108 0 l 108 1000 "},"Ķ":{"ha":931,"x_min":0,"x_max":0,"o":"m 234 1000 l 234 564 l 245 564 l 731 1000 l 877 1000 l 877 979 l 353 511 l 892 21 l 892 0 l 740 0 l 245 449 l 234 449 l 234 0 l 108 0 l 108 1000 "},"L":{"ha":876,"x_min":0,"x_max":0,"o":"m 256 1000 l 256 112 l 816 112 l 816 0 l 128 0 l 128 1000 "},"Ĺ":{"ha":876,"x_min":0,"x_max":0,"o":"m 256 1000 l 256 112 l 816 112 l 816 0 l 128 0 l 128 1000 "},"Ľ":{"ha":876,"x_min":0,"x_max":0,"o":"m 256 1000 l 256 112 l 816 112 l 816 0 l 128 0 l 128 1000 "},"Ļ":{"ha":876,"x_min":0,"x_max":0,"o":"m 256 1000 l 256 112 l 816 112 l 816 0 l 128 0 l 128 1000 "},"Ŀ":{"ha":876,"x_min":0,"x_max":0,"o":"m 256 1000 l 256 112 l 816 112 l 816 0 l 128 0 l 128 1000 "},"Ḷ":{"ha":876,"x_min":0,"x_max":0,"o":"m 256 1000 l 256 112 l 816 112 l 816 0 l 128 0 l 128 1000 "},"Ḻ":{"ha":876,"x_min":0,"x_max":0,"o":"m 256 1000 l 256 112 l 816 112 l 816 0 l 128 0 l 128 1000 "},"Ł":{"ha":876,"x_min":0,"x_max":0,"o":"m 256 1000 l 256 112 l 816 112 l 816 0 l 128 0 l 128 1000 "},"M":{"ha":1113,"x_min":0,"x_max":0,"o":"m 258 1000 l 551 147 l 563 147 l 856 1000 l 1018 1000 l 1018 0 l 904 0 l 904 788 l 893 788 l 622 0 l 491 0 l 219 788 l 208 788 l 208 0 l 94 0 l 94 1000 "},"Ṃ":{"ha":1113,"x_min":0,"x_max":0,"o":"m 258 1000 l 551 147 l 563 147 l 856 1000 l 1018 1000 l 1018 0 l 904 0 l 904 788 l 893 788 l 622 0 l 491 0 l 219 788 l 208 788 l 208 0 l 94 0 l 94 1000 "},"N":{"ha":971,"x_min":0,"x_max":0,"o":"m 258 1000 l 737 188 l 748 188 l 748 1000 l 868 1000 l 868 0 l 713 0 l 234 813 l 223 813 l 223 0 l 103 0 l 103 1000 "},"Ń":{"ha":971,"x_min":0,"x_max":0,"o":"m 258 1000 l 737 188 l 748 188 l 748 1000 l 868 1000 l 868 0 l 713 0 l 234 813 l 223 813 l 223 0 l 103 0 l 103 1000 "},"Ň":{"ha":971,"x_min":0,"x_max":0,"o":"m 258 1000 l 737 188 l 748 188 l 748 1000 l 868 1000 l 868 0 l 713 0 l 234 813 l 223 813 l 223 0 l 103 0 l 103 1000 "},"Ņ":{"ha":971,"x_min":0,"x_max":0,"o":"m 258 1000 l 737 188 l 748 188 l 748 1000 l 868 1000 l 868 0 l 713 0 l 234 813 l 223 813 l 223 0 l 103 0 l 103 1000 "},"Ṅ":{"ha":971,"x_min":0,"x_max":0,"o":"m 258 1000 l 737 188 l 748 188 l 748 1000 l 868 1000 l 868 0 l 713 0 l 234 813 l 223 813 l 223 0 l 103 0 l 103 1000 "},"Ṇ":{"ha":971,"x_min":0,"x_max":0,"o":"m 258 1000 l 737 188 l 748 188 l 748 1000 l 868 1000 l 868 0 l 713 0 l 234 813 l 223 813 l 223 0 l 103 0 l 103 1000 "},"Ṉ":{"ha":971,"x_min":0,"x_max":0,"o":"m 258 1000 l 737 188 l 748 188 l 748 1000 l 868 1000 l 868 0 l 713 0 l 234 813 l 223 813 l 223 0 l 103 0 l 103 1000 "},"Ñ":{"ha":971,"x_min":0,"x_max":0,"o":"m 258 1000 l 737 188 l 748 188 l 748 1000 l 868 1000 l 868 0 l 713 0 l 234 813 l 223 813 l 223 0 l 103 0 l 103 1000 "},"Ŋ":{"ha":971,"x_min":0,"x_max":0,"o":"m 258 1000 l 737 188 l 748 188 l 748 1000 l 868 1000 l 868 0 l 713 0 l 234 813 l 223 813 l 223 0 l 103 0 l 103 1000 "},"O":{"ha":1019,"x_min":0,"x_max":0,"o":"m 55 500 b 509 1018 55 836 235 1018 b 964 500 783 1018 964 836 b 509 -18 964 164 783 -18 b 55 500 235 -18 55 164 m 184 500 b 509 92 184 233 308 92 b 835 500 710 92 835 233 b 509 908 835 767 710 908 b 184 500 308 908 184 767 "},"Ó":{"ha":1019,"x_min":0,"x_max":0,"o":"m 55 500 b 509 1018 55 836 235 1018 b 964 500 783 1018 964 836 b 509 -18 964 164 783 -18 b 55 500 235 -18 55 164 m 184 500 b 509 92 184 233 308 92 b 835 500 710 92 835 233 b 509 908 835 767 710 908 b 184 500 308 908 184 767 "},"Ŏ":{"ha":1019,"x_min":0,"x_max":0,"o":"m 55 500 b 509 1018 55 836 235 1018 b 964 500 783 1018 964 836 b 509 -18 964 164 783 -18 b 55 500 235 -18 55 164 m 184 500 b 509 92 184 233 308 92 b 835 500 710 92 835 233 b 509 908 835 767 710 908 b 184 500 308 908 184 767 "},"Ô":{"ha":1019,"x_min":0,"x_max":0,"o":"m 55 500 b 509 1018 55 836 235 1018 b 964 500 783 1018 964 836 b 509 -18 964 164 783 -18 b 55 500 235 -18 55 164 m 184 500 b 509 92 184 233 308 92 b 835 500 710 92 835 233 b 509 908 835 767 710 908 b 184 500 308 908 184 767 "},"Ố":{"ha":1019,"x_min":0,"x_max":0,"o":"m 55 500 b 509 1018 55 836 235 1018 b 964 500 783 1018 964 836 b 509 -18 964 164 783 -18 b 55 500 235 -18 55 164 m 184 500 b 509 92 184 233 308 92 b 835 500 710 92 835 233 b 509 908 835 767 710 908 b 184 500 308 908 184 767 "},"Ộ":{"ha":1019,"x_min":0,"x_max":0,"o":"m 55 500 b 509 1018 55 836 235 1018 b 964 500 783 1018 964 836 b 509 -18 964 164 783 -18 b 55 500 235 -18 55 164 m 184 500 b 509 92 184 233 308 92 b 835 500 710 92 835 233 b 509 908 835 767 710 908 b 184 500 308 908 184 767 "},"Ồ":{"ha":1019,"x_min":0,"x_max":0,"o":"m 55 500 b 509 1018 55 836 235 1018 b 964 500 783 1018 964 836 b 509 -18 964 164 783 -18 b 55 500 235 -18 55 164 m 184 500 b 509 92 184 233 308 92 b 835 500 710 92 835 233 b 509 908 835 767 710 908 b 184 500 308 908 184 767 "},"Ổ":{"ha":1019,"x_min":0,"x_max":0,"o":"m 55 500 b 509 1018 55 836 235 1018 b 964 500 783 1018 964 836 b 509 -18 964 164 783 -18 b 55 500 235 -18 55 164 m 184 500 b 509 92 184 233 308 92 b 835 500 710 92 835 233 b 509 908 835 767 710 908 b 184 500 308 908 184 767 "},"Ỗ":{"ha":1019,"x_min":0,"x_max":0,"o":"m 55 500 b 509 1018 55 836 235 1018 b 964 500 783 1018 964 836 b 509 -18 964 164 783 -18 b 55 500 235 -18 55 164 m 184 500 b 509 92 184 233 308 92 b 835 500 710 92 835 233 b 509 908 835 767 710 908 b 184 500 308 908 184 767 "},"Ȍ":{"ha":1019,"x_min":0,"x_max":0,"o":"m 55 500 b 509 1018 55 836 235 1018 b 964 500 783 1018 964 836 b 509 -18 964 164 783 -18 b 55 500 235 -18 55 164 m 184 500 b 509 92 184 233 308 92 b 835 500 710 92 835 233 b 509 908 835 767 710 908 b 184 500 308 908 184 767 "},"Ö":{"ha":1019,"x_min":0,"x_max":0,"o":"m 55 500 b 509 1018 55 836 235 1018 b 964 500 783 1018 964 836 b 509 -18 964 164 783 -18 b 55 500 235 -18 55 164 m 184 500 b 509 92 184 233 308 92 b 835 500 710 92 835 233 b 509 908 835 767 710 908 b 184 500 308 908 184 767 "},"Ȫ":{"ha":1019,"x_min":0,"x_max":0,"o":"m 55 500 b 509 1018 55 836 235 1018 b 964 500 783 1018 964 836 b 509 -18 964 164 783 -18 b 55 500 235 -18 55 164 m 184 500 b 509 92 184 233 308 92 b 835 500 710 92 835 233 b 509 908 835 767 710 908 b 184 500 308 908 184 767 "},"Ȱ":{"ha":1019,"x_min":0,"x_max":0,"o":"m 55 500 b 509 1018 55 836 235 1018 b 964 500 783 1018 964 836 b 509 -18 964 164 783 -18 b 55 500 235 -18 55 164 m 184 500 b 509 92 184 233 308 92 b 835 500 710 92 835 233 b 509 908 835 767 710 908 b 184 500 308 908 184 767 "},"Ọ":{"ha":1019,"x_min":0,"x_max":0,"o":"m 55 500 b 509 1018 55 836 235 1018 b 964 500 783 1018 964 836 b 509 -18 964 164 783 -18 b 55 500 235 -18 55 164 m 184 500 b 509 92 184 233 308 92 b 835 500 710 92 835 233 b 509 908 835 767 710 908 b 184 500 308 908 184 767 "},"Ò":{"ha":1019,"x_min":0,"x_max":0,"o":"m 55 500 b 509 1018 55 836 235 1018 b 964 500 783 1018 964 836 b 509 -18 964 164 783 -18 b 55 500 235 -18 55 164 m 184 500 b 509 92 184 233 308 92 b 835 500 710 92 835 233 b 509 908 835 767 710 908 b 184 500 308 908 184 767 "},"Ỏ":{"ha":1019,"x_min":0,"x_max":0,"o":"m 55 500 b 509 1018 55 836 235 1018 b 964 500 783 1018 964 836 b 509 -18 964 164 783 -18 b 55 500 235 -18 55 164 m 184 500 b 509 92 184 233 308 92 b 835 500 710 92 835 233 b 509 908 835 767 710 908 b 184 500 308 908 184 767 "},"Ơ":{"ha":1019,"x_min":0,"x_max":0,"o":"m 55 500 b 509 1018 55 836 235 1018 b 964 500 783 1018 964 836 b 509 -18 964 164 783 -18 b 55 500 235 -18 55 164 m 184 500 b 509 92 184 233 308 92 b 835 500 710 92 835 233 b 509 908 835 767 710 908 b 184 500 308 908 184 767 "},"Ớ":{"ha":1019,"x_min":0,"x_max":0,"o":"m 55 500 b 509 1018 55 836 235 1018 b 964 500 783 1018 964 836 b 509 -18 964 164 783 -18 b 55 500 235 -18 55 164 m 184 500 b 509 92 184 233 308 92 b 835 500 710 92 835 233 b 509 908 835 767 710 908 b 184 500 308 908 184 767 "},"Ợ":{"ha":1019,"x_min":0,"x_max":0,"o":"m 55 500 b 509 1018 55 836 235 1018 b 964 500 783 1018 964 836 b 509 -18 964 164 783 -18 b 55 500 235 -18 55 164 m 184 500 b 509 92 184 233 308 92 b 835 500 710 92 835 233 b 509 908 835 767 710 908 b 184 500 308 908 184 767 "},"Ờ":{"ha":1019,"x_min":0,"x_max":0,"o":"m 55 500 b 509 1018 55 836 235 1018 b 964 500 783 1018 964 836 b 509 -18 964 164 783 -18 b 55 500 235 -18 55 164 m 184 500 b 509 92 184 233 308 92 b 835 500 710 92 835 233 b 509 908 835 767 710 908 b 184 500 308 908 184 767 "},"Ở":{"ha":1019,"x_min":0,"x_max":0,"o":"m 55 500 b 509 1018 55 836 235 1018 b 964 500 783 1018 964 836 b 509 -18 964 164 783 -18 b 55 500 235 -18 55 164 m 184 500 b 509 92 184 233 308 92 b 835 500 710 92 835 233 b 509 908 835 767 710 908 b 184 500 308 908 184 767 "},"Ỡ":{"ha":1019,"x_min":0,"x_max":0,"o":"m 55 500 b 509 1018 55 836 235 1018 b 964 500 783 1018 964 836 b 509 -18 964 164 783 -18 b 55 500 235 -18 55 164 m 184 500 b 509 92 184 233 308 92 b 835 500 710 92 835 233 b 509 908 835 767 710 908 b 184 500 308 908 184 767 "},"Ő":{"ha":1019,"x_min":0,"x_max":0,"o":"m 55 500 b 509 1018 55 836 235 1018 b 964 500 783 1018 964 836 b 509 -18 964 164 783 -18 b 55 500 235 -18 55 164 m 184 500 b 509 92 184 233 308 92 b 835 500 710 92 835 233 b 509 908 835 767 710 908 b 184 500 308 908 184 767 "},"Ȏ":{"ha":1019,"x_min":0,"x_max":0,"o":"m 55 500 b 509 1018 55 836 235 1018 b 964 500 783 1018 964 836 b 509 -18 964 164 783 -18 b 55 500 235 -18 55 164 m 184 500 b 509 92 184 233 308 92 b 835 500 710 92 835 233 b 509 908 835 767 710 908 b 184 500 308 908 184 767 "},"Ō":{"ha":1019,"x_min":0,"x_max":0,"o":"m 55 500 b 509 1018 55 836 235 1018 b 964 500 783 1018 964 836 b 509 -18 964 164 783 -18 b 55 500 235 -18 55 164 m 184 500 b 509 92 184 233 308 92 b 835 500 710 92 835 233 b 509 908 835 767 710 908 b 184 500 308 908 184 767 "},"Ṓ":{"ha":1019,"x_min":0,"x_max":0,"o":"m 55 500 b 509 1018 55 836 235 1018 b 964 500 783 1018 964 836 b 509 -18 964 164 783 -18 b 55 500 235 -18 55 164 m 184 500 b 509 92 184 233 308 92 b 835 500 710 92 835 233 b 509 908 835 767 710 908 b 184 500 308 908 184 767 "},"Ṑ":{"ha":1019,"x_min":0,"x_max":0,"o":"m 55 500 b 509 1018 55 836 235 1018 b 964 500 783 1018 964 836 b 509 -18 964 164 783 -18 b 55 500 235 -18 55 164 m 184 500 b 509 92 184 233 308 92 b 835 500 710 92 835 233 b 509 908 835 767 710 908 b 184 500 308 908 184 767 "},"Ǫ":{"ha":1019,"x_min":0,"x_max":0,"o":"m 55 500 b 509 1018 55 836 235 1018 b 964 500 783 1018 964 836 b 509 -18 964 164 783 -18 b 55 500 235 -18 55 164 m 184 500 b 509 92 184 233 308 92 b 835 500 710 92 835 233 b 509 908 835 767 710 908 b 184 500 308 908 184 767 "},"Ø":{"ha":1019,"x_min":0,"x_max":0,"o":"m 55 500 b 509 1018 55 836 235 1018 b 964 500 783 1018 964 836 b 509 -18 964 164 783 -18 b 55 500 235 -18 55 164 m 184 500 b 509 92 184 233 308 92 b 835 500 710 92 835 233 b 509 908 835 767 710 908 b 184 500 308 908 184 767 "},"Ǿ":{"ha":1019,"x_min":0,"x_max":0,"o":"m 55 500 b 509 1018 55 836 235 1018 b 964 500 783 1018 964 836 b 509 -18 964 164 783 -18 b 55 500 235 -18 55 164 m 184 500 b 509 92 184 233 308 92 b 835 500 710 92 835 233 b 509 908 835 767 710 908 b 184 500 308 908 184 767 "},"Õ":{"ha":1019,"x_min":0,"x_max":0,"o":"m 55 500 b 509 1018 55 836 235 1018 b 964 500 783 1018 964 836 b 509 -18 964 164 783 -18 b 55 500 235 -18 55 164 m 184 500 b 509 92 184 233 308 92 b 835 500 710 92 835 233 b 509 908 835 767 710 908 b 184 500 308 908 184 767 "},"Ṍ":{"ha":1019,"x_min":0,"x_max":0,"o":"m 55 500 b 509 1018 55 836 235 1018 b 964 500 783 1018 964 836 b 509 -18 964 164 783 -18 b 55 500 235 -18 55 164 m 184 500 b 509 92 184 233 308 92 b 835 500 710 92 835 233 b 509 908 835 767 710 908 b 184 500 308 908 184 767 "},"Ṏ":{"ha":1019,"x_min":0,"x_max":0,"o":"m 55 500 b 509 1018 55 836 235 1018 b 964 500 783 1018 964 836 b 509 -18 964 164 783 -18 b 55 500 235 -18 55 164 m 184 500 b 509 92 184 233 308 92 b 835 500 710 92 835 233 b 509 908 835 767 710 908 b 184 500 308 908 184 767 "},"Ȭ":{"ha":1019,"x_min":0,"x_max":0,"o":"m 55 500 b 509 1018 55 836 235 1018 b 964 500 783 1018 964 836 b 509 -18 964 164 783 -18 b 55 500 235 -18 55 164 m 184 500 b 509 92 184 233 308 92 b 835 500 710 92 835 233 b 509 908 835 767 710 908 b 184 500 308 908 184 767 "},"Œ":{"ha":1019,"x_min":0,"x_max":0,"o":"m 55 500 b 509 1018 55 836 235 1018 b 964 500 783 1018 964 836 b 509 -18 964 164 783 -18 b 55 500 235 -18 55 164 m 184 500 b 509 92 184 233 308 92 b 835 500 710 92 835 233 b 509 908 835 767 710 908 b 184 500 308 908 184 767 "},"P":{"ha":912,"x_min":0,"x_max":0,"o":"m 548 1000 b 863 713 723 1000 863 897 b 548 425 863 529 723 425 l 239 425 l 239 0 l 112 0 l 112 1000 l 548 1000 m 528 533 b 737 713 653 533 737 598 b 528 892 737 828 653 892 l 239 892 l 239 533 "},"Þ":{"ha":912,"x_min":0,"x_max":0,"o":"m 548 1000 b 863 713 723 1000 863 897 b 548 425 863 529 723 425 l 239 425 l 239 0 l 112 0 l 112 1000 l 548 1000 m 528 533 b 737 713 653 533 737 598 b 528 892 737 828 653 892 l 239 892 l 239 533 "},"Q":{"ha":1019,"x_min":0,"x_max":0,"o":"m 55 500 b 509 1018 55 836 235 1018 b 964 500 783 1018 964 836 b 567 -15 964 188 808 9 l 567 -131 l 578 -142 l 767 -142 l 767 -242 l 633 -242 b 451 -69 517 -242 451 -185 l 451 -15 b 55 500 210 9 55 188 m 184 500 b 509 92 184 233 308 92 b 835 500 710 92 835 233 b 509 908 835 767 710 908 b 184 500 308 908 184 767 "},"R":{"ha":927,"x_min":0,"x_max":0,"o":"m 569 1000 b 874 720 738 1000 874 899 b 581 440 874 541 742 440 l 413 440 l 866 21 l 866 0 l 724 0 l 247 443 l 233 443 l 233 0 l 108 0 l 108 1000 l 569 1000 m 551 543 b 750 717 668 543 750 603 b 551 892 750 831 668 892 l 233 892 l 233 543 "},"Ŕ":{"ha":927,"x_min":0,"x_max":0,"o":"m 569 1000 b 874 720 738 1000 874 899 b 581 440 874 541 742 440 l 413 440 l 866 21 l 866 0 l 724 0 l 247 443 l 233 443 l 233 0 l 108 0 l 108 1000 l 569 1000 m 551 543 b 750 717 668 543 750 603 b 551 892 750 831 668 892 l 233 892 l 233 543 "},"Ř":{"ha":927,"x_min":0,"x_max":0,"o":"m 569 1000 b 874 720 738 1000 874 899 b 581 440 874 541 742 440 l 413 440 l 866 21 l 866 0 l 724 0 l 247 443 l 233 443 l 233 0 l 108 0 l 108 1000 l 569 1000 m 551 543 b 750 717 668 543 750 603 b 551 892 750 831 668 892 l 233 892 l 233 543 "},"Ŗ":{"ha":927,"x_min":0,"x_max":0,"o":"m 569 1000 b 874 720 738 1000 874 899 b 581 440 874 541 742 440 l 413 440 l 866 21 l 866 0 l 724 0 l 247 443 l 233 443 l 233 0 l 108 0 l 108 1000 l 569 1000 m 551 543 b 750 717 668 543 750 603 b 551 892 750 831 668 892 l 233 892 l 233 543 "},"Ȑ":{"ha":927,"x_min":0,"x_max":0,"o":"m 569 1000 b 874 720 738 1000 874 899 b 581 440 874 541 742 440 l 413 440 l 866 21 l 866 0 l 724 0 l 247 443 l 233 443 l 233 0 l 108 0 l 108 1000 l 569 1000 m 551 543 b 750 717 668 543 750 603 b 551 892 750 831 668 892 l 233 892 l 233 543 "},"Ṛ":{"ha":927,"x_min":0,"x_max":0,"o":"m 569 1000 b 874 720 738 1000 874 899 b 581 440 874 541 742 440 l 413 440 l 866 21 l 866 0 l 724 0 l 247 443 l 233 443 l 233 0 l 108 0 l 108 1000 l 569 1000 m 551 543 b 750 717 668 543 750 603 b 551 892 750 831 668 892 l 233 892 l 233 543 "},"Ȓ":{"ha":927,"x_min":0,"x_max":0,"o":"m 569 1000 b 874 720 738 1000 874 899 b 581 440 874 541 742 440 l 413 440 l 866 21 l 866 0 l 724 0 l 247 443 l 233 443 l 233 0 l 108 0 l 108 1000 l 569 1000 m 551 543 b 750 717 668 543 750 603 b 551 892 750 831 668 892 l 233 892 l 233 543 "},"Ṟ":{"ha":927,"x_min":0,"x_max":0,"o":"m 569 1000 b 874 720 738 1000 874 899 b 581 440 874 541 742 440 l 413 440 l 866 21 l 866 0 l 724 0 l 247 443 l 233 443 l 233 0 l 108 0 l 108 1000 l 569 1000 m 551 543 b 750 717 668 543 750 603 b 551 892 750 831 668 892 l 233 892 l 233 543 "},"S":{"ha":917,"x_min":0,"x_max":0,"o":"m 85 744 b 456 1016 85 911 222 1016 b 846 718 690 1016 833 909 l 846 697 l 725 697 b 456 913 718 852 605 913 b 210 745 308 913 210 852 b 424 575 210 639 292 597 l 538 556 b 851 274 731 524 851 453 b 476 -16 851 94 714 -16 b 60 290 238 -16 76 94 l 60 310 l 179 310 b 474 88 197 149 321 88 b 726 267 627 88 726 149 b 502 447 726 385 635 424 l 388 466 b 85 744 195 498 85 577 "},"Ś":{"ha":917,"x_min":0,"x_max":0,"o":"m 85 744 b 456 1016 85 911 222 1016 b 846 718 690 1016 833 909 l 846 697 l 725 697 b 456 913 718 852 605 913 b 210 745 308 913 210 852 b 424 575 210 639 292 597 l 538 556 b 851 274 731 524 851 453 b 476 -16 851 94 714 -16 b 60 290 238 -16 76 94 l 60 310 l 179 310 b 474 88 197 149 321 88 b 726 267 627 88 726 149 b 502 447 726 385 635 424 l 388 466 b 85 744 195 498 85 577 "},"Ṥ":{"ha":917,"x_min":0,"x_max":0,"o":"m 85 744 b 456 1016 85 911 222 1016 b 846 718 690 1016 833 909 l 846 697 l 725 697 b 456 913 718 852 605 913 b 210 745 308 913 210 852 b 424 575 210 639 292 597 l 538 556 b 851 274 731 524 851 453 b 476 -16 851 94 714 -16 b 60 290 238 -16 76 94 l 60 310 l 179 310 b 474 88 197 149 321 88 b 726 267 627 88 726 149 b 502 447 726 385 635 424 l 388 466 b 85 744 195 498 85 577 "},"Š":{"ha":917,"x_min":0,"x_max":0,"o":"m 85 744 b 456 1016 85 911 222 1016 b 846 718 690 1016 833 909 l 846 697 l 725 697 b 456 913 718 852 605 913 b 210 745 308 913 210 852 b 424 575 210 639 292 597 l 538 556 b 851 274 731 524 851 453 b 476 -16 851 94 714 -16 b 60 290 238 -16 76 94 l 60 310 l 179 310 b 474 88 197 149 321 88 b 726 267 627 88 726 149 b 502 447 726 385 635 424 l 388 466 b 85 744 195 498 85 577 "},"Ṧ":{"ha":917,"x_min":0,"x_max":0,"o":"m 85 744 b 456 1016 85 911 222 1016 b 846 718 690 1016 833 909 l 846 697 l 725 697 b 456 913 718 852 605 913 b 210 745 308 913 210 852 b 424 575 210 639 292 597 l 538 556 b 851 274 731 524 851 453 b 476 -16 851 94 714 -16 b 60 290 238 -16 76 94 l 60 310 l 179 310 b 474 88 197 149 321 88 b 726 267 627 88 726 149 b 502 447 726 385 635 424 l 388 466 b 85 744 195 498 85 577 "},"Ş":{"ha":917,"x_min":0,"x_max":0,"o":"m 85 744 b 456 1016 85 911 222 1016 b 846 718 690 1016 833 909 l 846 697 l 725 697 b 456 913 718 852 605 913 b 210 745 308 913 210 852 b 424 575 210 639 292 597 l 538 556 b 851 274 731 524 851 453 b 476 -16 851 94 714 -16 b 60 290 238 -16 76 94 l 60 310 l 179 310 b 474 88 197 149 321 88 b 726 267 627 88 726 149 b 502 447 726 385 635 424 l 388 466 b 85 744 195 498 85 577 "},"Ŝ":{"ha":917,"x_min":0,"x_max":0,"o":"m 85 744 b 456 1016 85 911 222 1016 b 846 718 690 1016 833 909 l 846 697 l 725 697 b 456 913 718 852 605 913 b 210 745 308 913 210 852 b 424 575 210 639 292 597 l 538 556 b 851 274 731 524 851 453 b 476 -16 851 94 714 -16 b 60 290 238 -16 76 94 l 60 310 l 179 310 b 474 88 197 149 321 88 b 726 267 627 88 726 149 b 502 447 726 385 635 424 l 388 466 b 85 744 195 498 85 577 "},"Ș":{"ha":917,"x_min":0,"x_max":0,"o":"m 85 744 b 456 1016 85 911 222 1016 b 846 718 690 1016 833 909 l 846 697 l 725 697 b 456 913 718 852 605 913 b 210 745 308 913 210 852 b 424 575 210 639 292 597 l 538 556 b 851 274 731 524 851 453 b 476 -16 851 94 714 -16 b 60 290 238 -16 76 94 l 60 310 l 179 310 b 474 88 197 149 321 88 b 726 267 627 88 726 149 b 502 447 726 385 635 424 l 388 466 b 85 744 195 498 85 577 "},"Ṡ":{"ha":917,"x_min":0,"x_max":0,"o":"m 85 744 b 456 1016 85 911 222 1016 b 846 718 690 1016 833 909 l 846 697 l 725 697 b 456 913 718 852 605 913 b 210 745 308 913 210 852 b 424 575 210 639 292 597 l 538 556 b 851 274 731 524 851 453 b 476 -16 851 94 714 -16 b 60 290 238 -16 76 94 l 60 310 l 179 310 b 474 88 197 149 321 88 b 726 267 627 88 726 149 b 502 447 726 385 635 424 l 388 466 b 85 744 195 498 85 577 "},"Ṣ":{"ha":917,"x_min":0,"x_max":0,"o":"m 85 744 b 456 1016 85 911 222 1016 b 846 718 690 1016 833 909 l 846 697 l 725 697 b 456 913 718 852 605 913 b 210 745 308 913 210 852 b 424 575 210 639 292 597 l 538 556 b 851 274 731 524 851 453 b 476 -16 851 94 714 -16 b 60 290 238 -16 76 94 l 60 310 l 179 310 b 474 88 197 149 321 88 b 726 267 627 88 726 149 b 502 447 726 385 635 424 l 388 466 b 85 744 195 498 85 577 "},"Ṩ":{"ha":917,"x_min":0,"x_max":0,"o":"m 85 744 b 456 1016 85 911 222 1016 b 846 718 690 1016 833 909 l 846 697 l 725 697 b 456 913 718 852 605 913 b 210 745 308 913 210 852 b 424 575 210 639 292 597 l 538 556 b 851 274 731 524 851 453 b 476 -16 851 94 714 -16 b 60 290 238 -16 76 94 l 60 310 l 179 310 b 474 88 197 149 321 88 b 726 267 627 88 726 149 b 502 447 726 385 635 424 l 388 466 b 85 744 195 498 85 577 "},"ẞ":{"ha":917,"x_min":0,"x_max":0,"o":"m 85 744 b 456 1016 85 911 222 1016 b 846 718 690 1016 833 909 l 846 697 l 725 697 b 456 913 718 852 605 913 b 210 745 308 913 210 852 b 424 575 210 639 292 597 l 538 556 b 851 274 731 524 851 453 b 476 -16 851 94 714 -16 b 60 290 238 -16 76 94 l 60 310 l 179 310 b 474 88 197 149 321 88 b 726 267 627 88 726 149 b 502 447 726 385 635 424 l 388 466 b 85 744 195 498 85 577 "},"T":{"ha":919,"x_min":0,"x_max":0,"o":"m 879 1000 l 879 890 l 524 890 l 524 0 l 396 0 l 396 890 l 41 890 l 41 1000 "},"Ŧ":{"ha":919,"x_min":0,"x_max":0,"o":"m 879 1000 l 879 890 l 524 890 l 524 0 l 396 0 l 396 890 l 41 890 l 41 1000 "},"Ť":{"ha":919,"x_min":0,"x_max":0,"o":"m 879 1000 l 879 890 l 524 890 l 524 0 l 396 0 l 396 890 l 41 890 l 41 1000 "},"Ţ":{"ha":919,"x_min":0,"x_max":0,"o":"m 879 1000 l 879 890 l 524 890 l 524 0 l 396 0 l 396 890 l 41 890 l 41 1000 "},"Ț":{"ha":919,"x_min":0,"x_max":0,"o":"m 879 1000 l 879 890 l 524 890 l 524 0 l 396 0 l 396 890 l 41 890 l 41 1000 "},"Ṭ":{"ha":919,"x_min":0,"x_max":0,"o":"m 879 1000 l 879 890 l 524 890 l 524 0 l 396 0 l 396 890 l 41 890 l 41 1000 "},"Ṯ":{"ha":919,"x_min":0,"x_max":0,"o":"m 879 1000 l 879 890 l 524 890 l 524 0 l 396 0 l 396 890 l 41 890 l 41 1000 "},"U":{"ha":969,"x_min":0,"x_max":0,"o":"m 227 1000 l 227 356 b 485 95 227 187 315 95 b 742 356 655 95 742 187 l 742 1000 l 869 1000 l 869 356 b 485 -17 869 129 744 -17 b 100 356 228 -17 100 129 l 100 1000 "},"Ú":{"ha":969,"x_min":0,"x_max":0,"o":"m 227 1000 l 227 356 b 485 95 227 187 315 95 b 742 356 655 95 742 187 l 742 1000 l 869 1000 l 869 356 b 485 -17 869 129 744 -17 b 100 356 228 -17 100 129 l 100 1000 "},"Ŭ":{"ha":969,"x_min":0,"x_max":0,"o":"m 227 1000 l 227 356 b 485 95 227 187 315 95 b 742 356 655 95 742 187 l 742 1000 l 869 1000 l 869 356 b 485 -17 869 129 744 -17 b 100 356 228 -17 100 129 l 100 1000 "},"Û":{"ha":969,"x_min":0,"x_max":0,"o":"m 227 1000 l 227 356 b 485 95 227 187 315 95 b 742 356 655 95 742 187 l 742 1000 l 869 1000 l 869 356 b 485 -17 869 129 744 -17 b 100 356 228 -17 100 129 l 100 1000 "},"Ȕ":{"ha":969,"x_min":0,"x_max":0,"o":"m 227 1000 l 227 356 b 485 95 227 187 315 95 b 742 356 655 95 742 187 l 742 1000 l 869 1000 l 869 356 b 485 -17 869 129 744 -17 b 100 356 228 -17 100 129 l 100 1000 "},"Ü":{"ha":969,"x_min":0,"x_max":0,"o":"m 227 1000 l 227 356 b 485 95 227 187 315 95 b 742 356 655 95 742 187 l 742 1000 l 869 1000 l 869 356 b 485 -17 869 129 744 -17 b 100 356 228 -17 100 129 l 100 1000 "},"Ụ":{"ha":969,"x_min":0,"x_max":0,"o":"m 227 1000 l 227 356 b 485 95 227 187 315 95 b 742 356 655 95 742 187 l 742 1000 l 869 1000 l 869 356 b 485 -17 869 129 744 -17 b 100 356 228 -17 100 129 l 100 1000 "},"Ù":{"ha":969,"x_min":0,"x_max":0,"o":"m 227 1000 l 227 356 b 485 95 227 187 315 95 b 742 356 655 95 742 187 l 742 1000 l 869 1000 l 869 356 b 485 -17 869 129 744 -17 b 100 356 228 -17 100 129 l 100 1000 "},"Ủ":{"ha":969,"x_min":0,"x_max":0,"o":"m 227 1000 l 227 356 b 485 95 227 187 315 95 b 742 356 655 95 742 187 l 742 1000 l 869 1000 l 869 356 b 485 -17 869 129 744 -17 b 100 356 228 -17 100 129 l 100 1000 "},"Ư":{"ha":969,"x_min":0,"x_max":0,"o":"m 227 1000 l 227 356 b 485 95 227 187 315 95 b 742 356 655 95 742 187 l 742 1000 l 869 1000 l 869 356 b 485 -17 869 129 744 -17 b 100 356 228 -17 100 129 l 100 1000 "},"Ứ":{"ha":969,"x_min":0,"x_max":0,"o":"m 227 1000 l 227 356 b 485 95 227 187 315 95 b 742 356 655 95 742 187 l 742 1000 l 869 1000 l 869 356 b 485 -17 869 129 744 -17 b 100 356 228 -17 100 129 l 100 1000 "},"Ự":{"ha":969,"x_min":0,"x_max":0,"o":"m 227 1000 l 227 356 b 485 95 227 187 315 95 b 742 356 655 95 742 187 l 742 1000 l 869 1000 l 869 356 b 485 -17 869 129 744 -17 b 100 356 228 -17 100 129 l 100 1000 "},"Ừ":{"ha":969,"x_min":0,"x_max":0,"o":"m 227 1000 l 227 356 b 485 95 227 187 315 95 b 742 356 655 95 742 187 l 742 1000 l 869 1000 l 869 356 b 485 -17 869 129 744 -17 b 100 356 228 -17 100 129 l 100 1000 "},"Ử":{"ha":969,"x_min":0,"x_max":0,"o":"m 227 1000 l 227 356 b 485 95 227 187 315 95 b 742 356 655 95 742 187 l 742 1000 l 869 1000 l 869 356 b 485 -17 869 129 744 -17 b 100 356 228 -17 100 129 l 100 1000 "},"Ữ":{"ha":969,"x_min":0,"x_max":0,"o":"m 227 1000 l 227 356 b 485 95 227 187 315 95 b 742 356 655 95 742 187 l 742 1000 l 869 1000 l 869 356 b 485 -17 869 129 744 -17 b 100 356 228 -17 100 129 l 100 1000 "},"Ű":{"ha":969,"x_min":0,"x_max":0,"o":"m 227 1000 l 227 356 b 485 95 227 187 315 95 b 742 356 655 95 742 187 l 742 1000 l 869 1000 l 869 356 b 485 -17 869 129 744 -17 b 100 356 228 -17 100 129 l 100 1000 "},"Ȗ":{"ha":969,"x_min":0,"x_max":0,"o":"m 227 1000 l 227 356 b 485 95 227 187 315 95 b 742 356 655 95 742 187 l 742 1000 l 869 1000 l 869 356 b 485 -17 869 129 744 -17 b 100 356 228 -17 100 129 l 100 1000 "},"Ū":{"ha":969,"x_min":0,"x_max":0,"o":"m 227 1000 l 227 356 b 485 95 227 187 315 95 b 742 356 655 95 742 187 l 742 1000 l 869 1000 l 869 356 b 485 -17 869 129 744 -17 b 100 356 228 -17 100 129 l 100 1000 "},"Ṻ":{"ha":969,"x_min":0,"x_max":0,"o":"m 227 1000 l 227 356 b 485 95 227 187 315 95 b 742 356 655 95 742 187 l 742 1000 l 869 1000 l 869 356 b 485 -17 869 129 744 -17 b 100 356 228 -17 100 129 l 100 1000 "},"Ų":{"ha":969,"x_min":0,"x_max":0,"o":"m 227 1000 l 227 356 b 485 95 227 187 315 95 b 742 356 655 95 742 187 l 742 1000 l 869 1000 l 869 356 b 485 -17 869 129 744 -17 b 100 356 228 -17 100 129 l 100 1000 "},"Ů":{"ha":969,"x_min":0,"x_max":0,"o":"m 227 1000 l 227 356 b 485 95 227 187 315 95 b 742 356 655 95 742 187 l 742 1000 l 869 1000 l 869 356 b 485 -17 869 129 744 -17 b 100 356 228 -17 100 129 l 100 1000 "},"Ũ":{"ha":969,"x_min":0,"x_max":0,"o":"m 227 1000 l 227 356 b 485 95 227 187 315 95 b 742 356 655 95 742 187 l 742 1000 l 869 1000 l 869 356 b 485 -17 869 129 744 -17 b 100 356 228 -17 100 129 l 100 1000 "},"Ṹ":{"ha":969,"x_min":0,"x_max":0,"o":"m 227 1000 l 227 356 b 485 95 227 187 315 95 b 742 356 655 95 742 187 l 742 1000 l 869 1000 l 869 356 b 485 -17 869 129 744 -17 b 100 356 228 -17 100 129 l 100 1000 "},"V":{"ha":941,"x_min":0,"x_max":0,"o":"m 161 1000 l 467 128 l 478 128 l 783 1000 l 906 1000 l 906 979 l 553 0 l 388 0 l 35 979 l 35 1000 "},"W":{"ha":1142,"x_min":0,"x_max":0,"o":"m 144 1000 l 301 146 l 312 146 l 497 1000 l 648 1000 l 833 146 l 844 146 l 1001 1000 l 1115 1000 l 1115 979 l 930 0 l 758 0 l 576 834 l 565 834 l 383 0 l 212 0 l 27 979 l 27 1000 "},"Ẃ":{"ha":1142,"x_min":0,"x_max":0,"o":"m 144 1000 l 301 146 l 312 146 l 497 1000 l 648 1000 l 833 146 l 844 146 l 1001 1000 l 1115 1000 l 1115 979 l 930 0 l 758 0 l 576 834 l 565 834 l 383 0 l 212 0 l 27 979 l 27 1000 "},"Ŵ":{"ha":1142,"x_min":0,"x_max":0,"o":"m 144 1000 l 301 146 l 312 146 l 497 1000 l 648 1000 l 833 146 l 844 146 l 1001 1000 l 1115 1000 l 1115 979 l 930 0 l 758 0 l 576 834 l 565 834 l 383 0 l 212 0 l 27 979 l 27 1000 "},"Ẅ":{"ha":1142,"x_min":0,"x_max":0,"o":"m 144 1000 l 301 146 l 312 146 l 497 1000 l 648 1000 l 833 146 l 844 146 l 1001 1000 l 1115 1000 l 1115 979 l 930 0 l 758 0 l 576 834 l 565 834 l 383 0 l 212 0 l 27 979 l 27 1000 "},"Ẁ":{"ha":1142,"x_min":0,"x_max":0,"o":"m 144 1000 l 301 146 l 312 146 l 497 1000 l 648 1000 l 833 146 l 844 146 l 1001 1000 l 1115 1000 l 1115 979 l 930 0 l 758 0 l 576 834 l 565 834 l 383 0 l 212 0 l 27 979 l 27 1000 "},"X":{"ha":956,"x_min":0,"x_max":0,"o":"m 192 1000 l 475 595 l 486 595 l 774 1000 l 906 1000 l 906 979 l 566 504 l 906 21 l 906 0 l 771 0 l 483 413 l 472 413 l 178 0 l 47 0 l 47 21 l 392 504 l 58 979 l 58 1000 "},"Y":{"ha":926,"x_min":0,"x_max":0,"o":"m 156 1000 l 459 522 l 470 522 l 774 1000 l 906 1000 l 906 979 l 526 388 l 526 0 l 399 0 l 399 388 l 19 979 l 19 1000 "},"Ý":{"ha":926,"x_min":0,"x_max":0,"o":"m 156 1000 l 459 522 l 470 522 l 774 1000 l 906 1000 l 906 979 l 526 388 l 526 0 l 399 0 l 399 388 l 19 979 l 19 1000 "},"Ŷ":{"ha":926,"x_min":0,"x_max":0,"o":"m 156 1000 l 459 522 l 470 522 l 774 1000 l 906 1000 l 906 979 l 526 388 l 526 0 l 399 0 l 399 388 l 19 979 l 19 1000 "},"Ÿ":{"ha":926,"x_min":0,"x_max":0,"o":"m 156 1000 l 459 522 l 470 522 l 774 1000 l 906 1000 l 906 979 l 526 388 l 526 0 l 399 0 l 399 388 l 19 979 l 19 1000 "},"Ẏ":{"ha":926,"x_min":0,"x_max":0,"o":"m 156 1000 l 459 522 l 470 522 l 774 1000 l 906 1000 l 906 979 l 526 388 l 526 0 l 399 0 l 399 388 l 19 979 l 19 1000 "},"Ỵ":{"ha":926,"x_min":0,"x_max":0,"o":"m 156 1000 l 459 522 l 470 522 l 774 1000 l 906 1000 l 906 979 l 526 388 l 526 0 l 399 0 l 399 388 l 19 979 l 19 1000 "},"Ỳ":{"ha":926,"x_min":0,"x_max":0,"o":"m 156 1000 l 459 522 l 470 522 l 774 1000 l 906 1000 l 906 979 l 526 388 l 526 0 l 399 0 l 399 388 l 19 979 l 19 1000 "},"Ỷ":{"ha":926,"x_min":0,"x_max":0,"o":"m 156 1000 l 459 522 l 470 522 l 774 1000 l 906 1000 l 906 979 l 526 388 l 526 0 l 399 0 l 399 388 l 19 979 l 19 1000 "},"Ȳ":{"ha":926,"x_min":0,"x_max":0,"o":"m 156 1000 l 459 522 l 470 522 l 774 1000 l 906 1000 l 906 979 l 526 388 l 526 0 l 399 0 l 399 388 l 19 979 l 19 1000 "},"Ỹ":{"ha":926,"x_min":0,"x_max":0,"o":"m 156 1000 l 459 522 l 470 522 l 774 1000 l 906 1000 l 906 979 l 526 388 l 526 0 l 399 0 l 399 388 l 19 979 l 19 1000 "},"Z":{"ha":906,"x_min":0,"x_max":0,"o":"m 824 1000 l 824 908 l 233 108 l 840 108 l 840 0 l 69 0 l 69 92 l 662 892 l 91 892 l 91 1000 "},"Ź":{"ha":906,"x_min":0,"x_max":0,"o":"m 824 1000 l 824 908 l 233 108 l 840 108 l 840 0 l 69 0 l 69 92 l 662 892 l 91 892 l 91 1000 "},"Ž":{"ha":906,"x_min":0,"x_max":0,"o":"m 824 1000 l 824 908 l 233 108 l 840 108 l 840 0 l 69 0 l 69 92 l 662 892 l 91 892 l 91 1000 "},"Ż":{"ha":906,"x_min":0,"x_max":0,"o":"m 824 1000 l 824 908 l 233 108 l 840 108 l 840 0 l 69 0 l 69 92 l 662 892 l 91 892 l 91 1000 "},"Ẓ":{"ha":906,"x_min":0,"x_max":0,"o":"m 824 1000 l 824 908 l 233 108 l 840 108 l 840 0 l 69 0 l 69 92 l 662 892 l 91 892 l 91 1000 "},"a":{"ha":851,"x_min":0,"x_max":0,"o":"m 118 511 b 431 724 133 642 247 724 b 722 466 615 724 722 642 l 722 0 l 608 0 l 608 97 l 597 97 b 347 -15 567 43 495 -15 b 84 194 192 -15 84 62 b 336 414 84 334 192 396 l 605 447 l 605 473 b 428 627 605 583 544 627 b 233 490 312 627 242 583 l 118 490 l 118 511 m 206 199 b 367 83 206 126 269 83 b 605 309 497 83 605 153 l 605 353 l 360 321 b 206 199 265 308 206 274 "},"á":{"ha":851,"x_min":0,"x_max":0,"o":"m 118 511 b 431 724 133 642 247 724 b 722 466 615 724 722 642 l 722 0 l 608 0 l 608 97 l 597 97 b 347 -15 567 43 495 -15 b 84 194 192 -15 84 62 b 336 414 84 334 192 396 l 605 447 l 605 473 b 428 627 605 583 544 627 b 233 490 312 627 242 583 l 118 490 l 118 511 m 206 199 b 367 83 206 126 269 83 b 605 309 497 83 605 153 l 605 353 l 360 321 b 206 199 265 308 206 274 "},"ă":{"ha":851,"x_min":0,"x_max":0,"o":"m 118 511 b 431 724 133 642 247 724 b 722 466 615 724 722 642 l 722 0 l 608 0 l 608 97 l 597 97 b 347 -15 567 43 495 -15 b 84 194 192 -15 84 62 b 336 414 84 334 192 396 l 605 447 l 605 473 b 428 627 605 583 544 627 b 233 490 312 627 242 583 l 118 490 l 118 511 m 206 199 b 367 83 206 126 269 83 b 605 309 497 83 605 153 l 605 353 l 360 321 b 206 199 265 308 206 274 "},"ắ":{"ha":851,"x_min":0,"x_max":0,"o":"m 118 511 b 431 724 133 642 247 724 b 722 466 615 724 722 642 l 722 0 l 608 0 l 608 97 l 597 97 b 347 -15 567 43 495 -15 b 84 194 192 -15 84 62 b 336 414 84 334 192 396 l 605 447 l 605 473 b 428 627 605 583 544 627 b 233 490 312 627 242 583 l 118 490 l 118 511 m 206 199 b 367 83 206 126 269 83 b 605 309 497 83 605 153 l 605 353 l 360 321 b 206 199 265 308 206 274 "},"ặ":{"ha":851,"x_min":0,"x_max":0,"o":"m 118 511 b 431 724 133 642 247 724 b 722 466 615 724 722 642 l 722 0 l 608 0 l 608 97 l 597 97 b 347 -15 567 43 495 -15 b 84 194 192 -15 84 62 b 336 414 84 334 192 396 l 605 447 l 605 473 b 428 627 605 583 544 627 b 233 490 312 627 242 583 l 118 490 l 118 511 m 206 199 b 367 83 206 126 269 83 b 605 309 497 83 605 153 l 605 353 l 360 321 b 206 199 265 308 206 274 "},"ằ":{"ha":851,"x_min":0,"x_max":0,"o":"m 118 511 b 431 724 133 642 247 724 b 722 466 615 724 722 642 l 722 0 l 608 0 l 608 97 l 597 97 b 347 -15 567 43 495 -15 b 84 194 192 -15 84 62 b 336 414 84 334 192 396 l 605 447 l 605 473 b 428 627 605 583 544 627 b 233 490 312 627 242 583 l 118 490 l 118 511 m 206 199 b 367 83 206 126 269 83 b 605 309 497 83 605 153 l 605 353 l 360 321 b 206 199 265 308 206 274 "},"ẳ":{"ha":851,"x_min":0,"x_max":0,"o":"m 118 511 b 431 724 133 642 247 724 b 722 466 615 724 722 642 l 722 0 l 608 0 l 608 97 l 597 97 b 347 -15 567 43 495 -15 b 84 194 192 -15 84 62 b 336 414 84 334 192 396 l 605 447 l 605 473 b 428 627 605 583 544 627 b 233 490 312 627 242 583 l 118 490 l 118 511 m 206 199 b 367 83 206 126 269 83 b 605 309 497 83 605 153 l 605 353 l 360 321 b 206 199 265 308 206 274 "},"ẵ":{"ha":851,"x_min":0,"x_max":0,"o":"m 118 511 b 431 724 133 642 247 724 b 722 466 615 724 722 642 l 722 0 l 608 0 l 608 97 l 597 97 b 347 -15 567 43 495 -15 b 84 194 192 -15 84 62 b 336 414 84 334 192 396 l 605 447 l 605 473 b 428 627 605 583 544 627 b 233 490 312 627 242 583 l 118 490 l 118 511 m 206 199 b 367 83 206 126 269 83 b 605 309 497 83 605 153 l 605 353 l 360 321 b 206 199 265 308 206 274 "},"â":{"ha":851,"x_min":0,"x_max":0,"o":"m 118 511 b 431 724 133 642 247 724 b 722 466 615 724 722 642 l 722 0 l 608 0 l 608 97 l 597 97 b 347 -15 567 43 495 -15 b 84 194 192 -15 84 62 b 336 414 84 334 192 396 l 605 447 l 605 473 b 428 627 605 583 544 627 b 233 490 312 627 242 583 l 118 490 l 118 511 m 206 199 b 367 83 206 126 269 83 b 605 309 497 83 605 153 l 605 353 l 360 321 b 206 199 265 308 206 274 "},"ấ":{"ha":851,"x_min":0,"x_max":0,"o":"m 118 511 b 431 724 133 642 247 724 b 722 466 615 724 722 642 l 722 0 l 608 0 l 608 97 l 597 97 b 347 -15 567 43 495 -15 b 84 194 192 -15 84 62 b 336 414 84 334 192 396 l 605 447 l 605 473 b 428 627 605 583 544 627 b 233 490 312 627 242 583 l 118 490 l 118 511 m 206 199 b 367 83 206 126 269 83 b 605 309 497 83 605 153 l 605 353 l 360 321 b 206 199 265 308 206 274 "},"ậ":{"ha":851,"x_min":0,"x_max":0,"o":"m 118 511 b 431 724 133 642 247 724 b 722 466 615 724 722 642 l 722 0 l 608 0 l 608 97 l 597 97 b 347 -15 567 43 495 -15 b 84 194 192 -15 84 62 b 336 414 84 334 192 396 l 605 447 l 605 473 b 428 627 605 583 544 627 b 233 490 312 627 242 583 l 118 490 l 118 511 m 206 199 b 367 83 206 126 269 83 b 605 309 497 83 605 153 l 605 353 l 360 321 b 206 199 265 308 206 274 "},"ầ":{"ha":851,"x_min":0,"x_max":0,"o":"m 118 511 b 431 724 133 642 247 724 b 722 466 615 724 722 642 l 722 0 l 608 0 l 608 97 l 597 97 b 347 -15 567 43 495 -15 b 84 194 192 -15 84 62 b 336 414 84 334 192 396 l 605 447 l 605 473 b 428 627 605 583 544 627 b 233 490 312 627 242 583 l 118 490 l 118 511 m 206 199 b 367 83 206 126 269 83 b 605 309 497 83 605 153 l 605 353 l 360 321 b 206 199 265 308 206 274 "},"ẩ":{"ha":851,"x_min":0,"x_max":0,"o":"m 118 511 b 431 724 133 642 247 724 b 722 466 615 724 722 642 l 722 0 l 608 0 l 608 97 l 597 97 b 347 -15 567 43 495 -15 b 84 194 192 -15 84 62 b 336 414 84 334 192 396 l 605 447 l 605 473 b 428 627 605 583 544 627 b 233 490 312 627 242 583 l 118 490 l 118 511 m 206 199 b 367 83 206 126 269 83 b 605 309 497 83 605 153 l 605 353 l 360 321 b 206 199 265 308 206 274 "},"ẫ":{"ha":851,"x_min":0,"x_max":0,"o":"m 118 511 b 431 724 133 642 247 724 b 722 466 615 724 722 642 l 722 0 l 608 0 l 608 97 l 597 97 b 347 -15 567 43 495 -15 b 84 194 192 -15 84 62 b 336 414 84 334 192 396 l 605 447 l 605 473 b 428 627 605 583 544 627 b 233 490 312 627 242 583 l 118 490 l 118 511 m 206 199 b 367 83 206 126 269 83 b 605 309 497 83 605 153 l 605 353 l 360 321 b 206 199 265 308 206 274 "},"ȁ":{"ha":851,"x_min":0,"x_max":0,"o":"m 118 511 b 431 724 133 642 247 724 b 722 466 615 724 722 642 l 722 0 l 608 0 l 608 97 l 597 97 b 347 -15 567 43 495 -15 b 84 194 192 -15 84 62 b 336 414 84 334 192 396 l 605 447 l 605 473 b 428 627 605 583 544 627 b 233 490 312 627 242 583 l 118 490 l 118 511 m 206 199 b 367 83 206 126 269 83 b 605 309 497 83 605 153 l 605 353 l 360 321 b 206 199 265 308 206 274 "},"ä":{"ha":851,"x_min":0,"x_max":0,"o":"m 118 511 b 431 724 133 642 247 724 b 722 466 615 724 722 642 l 722 0 l 608 0 l 608 97 l 597 97 b 347 -15 567 43 495 -15 b 84 194 192 -15 84 62 b 336 414 84 334 192 396 l 605 447 l 605 473 b 428 627 605 583 544 627 b 233 490 312 627 242 583 l 118 490 l 118 511 m 206 199 b 367 83 206 126 269 83 b 605 309 497 83 605 153 l 605 353 l 360 321 b 206 199 265 308 206 274 "},"ạ":{"ha":851,"x_min":0,"x_max":0,"o":"m 118 511 b 431 724 133 642 247 724 b 722 466 615 724 722 642 l 722 0 l 608 0 l 608 97 l 597 97 b 347 -15 567 43 495 -15 b 84 194 192 -15 84 62 b 336 414 84 334 192 396 l 605 447 l 605 473 b 428 627 605 583 544 627 b 233 490 312 627 242 583 l 118 490 l 118 511 m 206 199 b 367 83 206 126 269 83 b 605 309 497 83 605 153 l 605 353 l 360 321 b 206 199 265 308 206 274 "},"à":{"ha":851,"x_min":0,"x_max":0,"o":"m 118 511 b 431 724 133 642 247 724 b 722 466 615 724 722 642 l 722 0 l 608 0 l 608 97 l 597 97 b 347 -15 567 43 495 -15 b 84 194 192 -15 84 62 b 336 414 84 334 192 396 l 605 447 l 605 473 b 428 627 605 583 544 627 b 233 490 312 627 242 583 l 118 490 l 118 511 m 206 199 b 367 83 206 126 269 83 b 605 309 497 83 605 153 l 605 353 l 360 321 b 206 199 265 308 206 274 "},"ả":{"ha":851,"x_min":0,"x_max":0,"o":"m 118 511 b 431 724 133 642 247 724 b 722 466 615 724 722 642 l 722 0 l 608 0 l 608 97 l 597 97 b 347 -15 567 43 495 -15 b 84 194 192 -15 84 62 b 336 414 84 334 192 396 l 605 447 l 605 473 b 428 627 605 583 544 627 b 233 490 312 627 242 583 l 118 490 l 118 511 m 206 199 b 367 83 206 126 269 83 b 605 309 497 83 605 153 l 605 353 l 360 321 b 206 199 265 308 206 274 "},"ȃ":{"ha":851,"x_min":0,"x_max":0,"o":"m 118 511 b 431 724 133 642 247 724 b 722 466 615 724 722 642 l 722 0 l 608 0 l 608 97 l 597 97 b 347 -15 567 43 495 -15 b 84 194 192 -15 84 62 b 336 414 84 334 192 396 l 605 447 l 605 473 b 428 627 605 583 544 627 b 233 490 312 627 242 583 l 118 490 l 118 511 m 206 199 b 367 83 206 126 269 83 b 605 309 497 83 605 153 l 605 353 l 360 321 b 206 199 265 308 206 274 "},"ā":{"ha":851,"x_min":0,"x_max":0,"o":"m 118 511 b 431 724 133 642 247 724 b 722 466 615 724 722 642 l 722 0 l 608 0 l 608 97 l 597 97 b 347 -15 567 43 495 -15 b 84 194 192 -15 84 62 b 336 414 84 334 192 396 l 605 447 l 605 473 b 428 627 605 583 544 627 b 233 490 312 627 242 583 l 118 490 l 118 511 m 206 199 b 367 83 206 126 269 83 b 605 309 497 83 605 153 l 605 353 l 360 321 b 206 199 265 308 206 274 "},"ą":{"ha":851,"x_min":0,"x_max":0,"o":"m 118 511 b 431 724 133 642 247 724 b 722 466 615 724 722 642 l 722 0 l 608 0 l 608 97 l 597 97 b 347 -15 567 43 495 -15 b 84 194 192 -15 84 62 b 336 414 84 334 192 396 l 605 447 l 605 473 b 428 627 605 583 544 627 b 233 490 312 627 242 583 l 118 490 l 118 511 m 206 199 b 367 83 206 126 269 83 b 605 309 497 83 605 153 l 605 353 l 360 321 b 206 199 265 308 206 274 "},"å":{"ha":851,"x_min":0,"x_max":0,"o":"m 118 511 b 431 724 133 642 247 724 b 722 466 615 724 722 642 l 722 0 l 608 0 l 608 97 l 597 97 b 347 -15 567 43 495 -15 b 84 194 192 -15 84 62 b 336 414 84 334 192 396 l 605 447 l 605 473 b 428 627 605 583 544 627 b 233 490 312 627 242 583 l 118 490 l 118 511 m 206 199 b 367 83 206 126 269 83 b 605 309 497 83 605 153 l 605 353 l 360 321 b 206 199 265 308 206 274 "},"ǻ":{"ha":851,"x_min":0,"x_max":0,"o":"m 118 511 b 431 724 133 642 247 724 b 722 466 615 724 722 642 l 722 0 l 608 0 l 608 97 l 597 97 b 347 -15 567 43 495 -15 b 84 194 192 -15 84 62 b 336 414 84 334 192 396 l 605 447 l 605 473 b 428 627 605 583 544 627 b 233 490 312 627 242 583 l 118 490 l 118 511 m 206 199 b 367 83 206 126 269 83 b 605 309 497 83 605 153 l 605 353 l 360 321 b 206 199 265 308 206 274 "},"ã":{"ha":851,"x_min":0,"x_max":0,"o":"m 118 511 b 431 724 133 642 247 724 b 722 466 615 724 722 642 l 722 0 l 608 0 l 608 97 l 597 97 b 347 -15 567 43 495 -15 b 84 194 192 -15 84 62 b 336 414 84 334 192 396 l 605 447 l 605 473 b 428 627 605 583 544 627 b 233 490 312 627 242 583 l 118 490 l 118 511 m 206 199 b 367 83 206 126 269 83 b 605 309 497 83 605 153 l 605 353 l 360 321 b 206 199 265 308 206 274 "},"æ":{"ha":851,"x_min":0,"x_max":0,"o":"m 118 511 b 431 724 133 642 247 724 b 722 466 615 724 722 642 l 722 0 l 608 0 l 608 97 l 597 97 b 347 -15 567 43 495 -15 b 84 194 192 -15 84 62 b 336 414 84 334 192 396 l 605 447 l 605 473 b 428 627 605 583 544 627 b 233 490 312 627 242 583 l 118 490 l 118 511 m 206 199 b 367 83 206 126 269 83 b 605 309 497 83 605 153 l 605 353 l 360 321 b 206 199 265 308 206 274 "},"ǽ":{"ha":851,"x_min":0,"x_max":0,"o":"m 118 511 b 431 724 133 642 247 724 b 722 466 615 724 722 642 l 722 0 l 608 0 l 608 97 l 597 97 b 347 -15 567 43 495 -15 b 84 194 192 -15 84 62 b 336 414 84 334 192 396 l 605 447 l 605 473 b 428 627 605 583 544 627 b 233 490 312 627 242 583 l 118 490 l 118 511 m 206 199 b 367 83 206 126 269 83 b 605 309 497 83 605 153 l 605 353 l 360 321 b 206 199 265 308 206 274 "},"b":{"ha":885,"x_min":0,"x_max":0,"o":"m 240 1000 l 240 614 l 251 614 b 487 724 304 692 389 724 b 811 353 671 724 811 599 b 487 -16 811 109 671 -16 b 248 97 387 -16 301 16 l 237 97 l 237 0 l 118 0 l 118 1000 m 236 353 b 462 85 236 182 327 85 b 688 353 597 85 688 182 b 462 622 688 526 597 622 b 236 353 327 622 236 526 "},"c":{"ha":848,"x_min":0,"x_max":0,"o":"m 86 353 b 444 724 86 592 229 724 b 764 485 658 724 755 596 l 764 464 l 650 464 b 447 624 643 538 588 624 b 210 353 303 624 210 529 b 447 84 210 178 301 84 b 651 248 590 84 642 169 l 767 248 l 767 227 b 444 -17 755 112 660 -17 b 86 353 228 -17 86 115 "},"ć":{"ha":848,"x_min":0,"x_max":0,"o":"m 86 353 b 444 724 86 592 229 724 b 764 485 658 724 755 596 l 764 464 l 650 464 b 447 624 643 538 588 624 b 210 353 303 624 210 529 b 447 84 210 178 301 84 b 651 248 590 84 642 169 l 767 248 l 767 227 b 444 -17 755 112 660 -17 b 86 353 228 -17 86 115 "},"č":{"ha":848,"x_min":0,"x_max":0,"o":"m 86 353 b 444 724 86 592 229 724 b 764 485 658 724 755 596 l 764 464 l 650 464 b 447 624 643 538 588 624 b 210 353 303 624 210 529 b 447 84 210 178 301 84 b 651 248 590 84 642 169 l 767 248 l 767 227 b 444 -17 755 112 660 -17 b 86 353 228 -17 86 115 "},"ç":{"ha":848,"x_min":0,"x_max":0,"o":"m 86 353 b 444 724 86 592 229 724 b 764 485 658 724 755 596 l 764 464 l 650 464 b 447 624 643 538 588 624 b 210 353 303 624 210 529 b 447 84 210 178 301 84 b 651 248 590 84 642 169 l 767 248 l 767 227 b 444 -17 755 112 660 -17 b 86 353 228 -17 86 115 "},"ḉ":{"ha":848,"x_min":0,"x_max":0,"o":"m 86 353 b 444 724 86 592 229 724 b 764 485 658 724 755 596 l 764 464 l 650 464 b 447 624 643 538 588 624 b 210 353 303 624 210 529 b 447 84 210 178 301 84 b 651 248 590 84 642 169 l 767 248 l 767 227 b 444 -17 755 112 660 -17 b 86 353 228 -17 86 115 "},"ĉ":{"ha":848,"x_min":0,"x_max":0,"o":"m 86 353 b 444 724 86 592 229 724 b 764 485 658 724 755 596 l 764 464 l 650 464 b 447 624 643 538 588 624 b 210 353 303 624 210 529 b 447 84 210 178 301 84 b 651 248 590 84 642 169 l 767 248 l 767 227 b 444 -17 755 112 660 -17 b 86 353 228 -17 86 115 "},"ċ":{"ha":848,"x_min":0,"x_max":0,"o":"m 86 353 b 444 724 86 592 229 724 b 764 485 658 724 755 596 l 764 464 l 650 464 b 447 624 643 538 588 624 b 210 353 303 624 210 529 b 447 84 210 178 301 84 b 651 248 590 84 642 169 l 767 248 l 767 227 b 444 -17 755 112 660 -17 b 86 353 228 -17 86 115 "},"d":{"ha":885,"x_min":0,"x_max":0,"o":"m 767 0 l 648 0 l 648 97 l 637 97 b 398 -16 584 16 498 -16 b 74 353 214 -16 74 109 b 398 724 74 599 214 724 b 634 614 496 724 581 692 l 644 614 l 644 1000 l 767 1000 m 197 353 b 423 85 197 182 288 85 b 649 353 558 85 649 182 b 423 622 649 526 558 622 b 197 353 288 622 197 526 "},"ð":{"ha":885,"x_min":0,"x_max":0,"o":"m 767 0 l 648 0 l 648 97 l 637 97 b 398 -16 584 16 498 -16 b 74 353 214 -16 74 109 b 398 724 74 599 214 724 b 634 614 496 724 581 692 l 644 614 l 644 1000 l 767 1000 m 197 353 b 423 85 197 182 288 85 b 649 353 558 85 649 182 b 423 622 649 526 558 622 b 197 353 288 622 197 526 "},"ď":{"ha":885,"x_min":0,"x_max":0,"o":"m 767 0 l 648 0 l 648 97 l 637 97 b 398 -16 584 16 498 -16 b 74 353 214 -16 74 109 b 398 724 74 599 214 724 b 634 614 496 724 581 692 l 644 614 l 644 1000 l 767 1000 m 197 353 b 423 85 197 182 288 85 b 649 353 558 85 649 182 b 423 622 649 526 558 622 b 197 353 288 622 197 526 "},"đ":{"ha":885,"x_min":0,"x_max":0,"o":"m 767 0 l 648 0 l 648 97 l 637 97 b 398 -16 584 16 498 -16 b 74 353 214 -16 74 109 b 398 724 74 599 214 724 b 634 614 496 724 581 692 l 644 614 l 644 1000 l 767 1000 m 197 353 b 423 85 197 182 288 85 b 649 353 558 85 649 182 b 423 622 649 526 558 622 b 197 353 288 622 197 526 "},"ḍ":{"ha":885,"x_min":0,"x_max":0,"o":"m 767 0 l 648 0 l 648 97 l 637 97 b 398 -16 584 16 498 -16 b 74 353 214 -16 74 109 b 398 724 74 599 214 724 b 634 614 496 724 581 692 l 644 614 l 644 1000 l 767 1000 m 197 353 b 423 85 197 182 288 85 b 649 353 558 85 649 182 b 423 622 649 526 558 622 b 197 353 288 622 197 526 "},"ḏ":{"ha":885,"x_min":0,"x_max":0,"o":"m 767 0 l 648 0 l 648 97 l 637 97 b 398 -16 584 16 498 -16 b 74 353 214 -16 74 109 b 398 724 74 599 214 724 b 634 614 496 724 581 692 l 644 614 l 644 1000 l 767 1000 m 197 353 b 423 85 197 182 288 85 b 649 353 558 85 649 182 b 423 622 649 526 558 622 b 197 353 288 622 197 526 "},"e":{"ha":851,"x_min":0,"x_max":0,"o":"m 85 354 b 435 724 85 593 220 724 b 767 385 649 724 767 592 l 767 324 l 203 324 b 435 81 206 176 292 81 b 643 222 570 81 632 156 l 753 222 l 753 201 b 435 -17 735 114 653 -17 b 85 354 221 -17 85 115 m 651 419 b 433 627 649 540 576 627 b 205 419 294 627 215 539 "},"é":{"ha":851,"x_min":0,"x_max":0,"o":"m 85 354 b 435 724 85 593 220 724 b 767 385 649 724 767 592 l 767 324 l 203 324 b 435 81 206 176 292 81 b 643 222 570 81 632 156 l 753 222 l 753 201 b 435 -17 735 114 653 -17 b 85 354 221 -17 85 115 m 651 419 b 433 627 649 540 576 627 b 205 419 294 627 215 539 "},"ĕ":{"ha":851,"x_min":0,"x_max":0,"o":"m 85 354 b 435 724 85 593 220 724 b 767 385 649 724 767 592 l 767 324 l 203 324 b 435 81 206 176 292 81 b 643 222 570 81 632 156 l 753 222 l 753 201 b 435 -17 735 114 653 -17 b 85 354 221 -17 85 115 m 651 419 b 433 627 649 540 576 627 b 205 419 294 627 215 539 "},"ě":{"ha":851,"x_min":0,"x_max":0,"o":"m 85 354 b 435 724 85 593 220 724 b 767 385 649 724 767 592 l 767 324 l 203 324 b 435 81 206 176 292 81 b 643 222 570 81 632 156 l 753 222 l 753 201 b 435 -17 735 114 653 -17 b 85 354 221 -17 85 115 m 651 419 b 433 627 649 540 576 627 b 205 419 294 627 215 539 "},"ḝ":{"ha":851,"x_min":0,"x_max":0,"o":"m 85 354 b 435 724 85 593 220 724 b 767 385 649 724 767 592 l 767 324 l 203 324 b 435 81 206 176 292 81 b 643 222 570 81 632 156 l 753 222 l 753 201 b 435 -17 735 114 653 -17 b 85 354 221 -17 85 115 m 651 419 b 433 627 649 540 576 627 b 205 419 294 627 215 539 "},"ê":{"ha":851,"x_min":0,"x_max":0,"o":"m 85 354 b 435 724 85 593 220 724 b 767 385 649 724 767 592 l 767 324 l 203 324 b 435 81 206 176 292 81 b 643 222 570 81 632 156 l 753 222 l 753 201 b 435 -17 735 114 653 -17 b 85 354 221 -17 85 115 m 651 419 b 433 627 649 540 576 627 b 205 419 294 627 215 539 "},"ế":{"ha":851,"x_min":0,"x_max":0,"o":"m 85 354 b 435 724 85 593 220 724 b 767 385 649 724 767 592 l 767 324 l 203 324 b 435 81 206 176 292 81 b 643 222 570 81 632 156 l 753 222 l 753 201 b 435 -17 735 114 653 -17 b 85 354 221 -17 85 115 m 651 419 b 433 627 649 540 576 627 b 205 419 294 627 215 539 "},"ệ":{"ha":851,"x_min":0,"x_max":0,"o":"m 85 354 b 435 724 85 593 220 724 b 767 385 649 724 767 592 l 767 324 l 203 324 b 435 81 206 176 292 81 b 643 222 570 81 632 156 l 753 222 l 753 201 b 435 -17 735 114 653 -17 b 85 354 221 -17 85 115 m 651 419 b 433 627 649 540 576 627 b 205 419 294 627 215 539 "},"ề":{"ha":851,"x_min":0,"x_max":0,"o":"m 85 354 b 435 724 85 593 220 724 b 767 385 649 724 767 592 l 767 324 l 203 324 b 435 81 206 176 292 81 b 643 222 570 81 632 156 l 753 222 l 753 201 b 435 -17 735 114 653 -17 b 85 354 221 -17 85 115 m 651 419 b 433 627 649 540 576 627 b 205 419 294 627 215 539 "},"ể":{"ha":851,"x_min":0,"x_max":0,"o":"m 85 354 b 435 724 85 593 220 724 b 767 385 649 724 767 592 l 767 324 l 203 324 b 435 81 206 176 292 81 b 643 222 570 81 632 156 l 753 222 l 753 201 b 435 -17 735 114 653 -17 b 85 354 221 -17 85 115 m 651 419 b 433 627 649 540 576 627 b 205 419 294 627 215 539 "},"ễ":{"ha":851,"x_min":0,"x_max":0,"o":"m 85 354 b 435 724 85 593 220 724 b 767 385 649 724 767 592 l 767 324 l 203 324 b 435 81 206 176 292 81 b 643 222 570 81 632 156 l 753 222 l 753 201 b 435 -17 735 114 653 -17 b 85 354 221 -17 85 115 m 651 419 b 433 627 649 540 576 627 b 205 419 294 627 215 539 "},"ȅ":{"ha":851,"x_min":0,"x_max":0,"o":"m 85 354 b 435 724 85 593 220 724 b 767 385 649 724 767 592 l 767 324 l 203 324 b 435 81 206 176 292 81 b 643 222 570 81 632 156 l 753 222 l 753 201 b 435 -17 735 114 653 -17 b 85 354 221 -17 85 115 m 651 419 b 433 627 649 540 576 627 b 205 419 294 627 215 539 "},"ë":{"ha":851,"x_min":0,"x_max":0,"o":"m 85 354 b 435 724 85 593 220 724 b 767 385 649 724 767 592 l 767 324 l 203 324 b 435 81 206 176 292 81 b 643 222 570 81 632 156 l 753 222 l 753 201 b 435 -17 735 114 653 -17 b 85 354 221 -17 85 115 m 651 419 b 433 627 649 540 576 627 b 205 419 294 627 215 539 "},"ė":{"ha":851,"x_min":0,"x_max":0,"o":"m 85 354 b 435 724 85 593 220 724 b 767 385 649 724 767 592 l 767 324 l 203 324 b 435 81 206 176 292 81 b 643 222 570 81 632 156 l 753 222 l 753 201 b 435 -17 735 114 653 -17 b 85 354 221 -17 85 115 m 651 419 b 433 627 649 540 576 627 b 205 419 294 627 215 539 "},"ẹ":{"ha":851,"x_min":0,"x_max":0,"o":"m 85 354 b 435 724 85 593 220 724 b 767 385 649 724 767 592 l 767 324 l 203 324 b 435 81 206 176 292 81 b 643 222 570 81 632 156 l 753 222 l 753 201 b 435 -17 735 114 653 -17 b 85 354 221 -17 85 115 m 651 419 b 433 627 649 540 576 627 b 205 419 294 627 215 539 "},"è":{"ha":851,"x_min":0,"x_max":0,"o":"m 85 354 b 435 724 85 593 220 724 b 767 385 649 724 767 592 l 767 324 l 203 324 b 435 81 206 176 292 81 b 643 222 570 81 632 156 l 753 222 l 753 201 b 435 -17 735 114 653 -17 b 85 354 221 -17 85 115 m 651 419 b 433 627 649 540 576 627 b 205 419 294 627 215 539 "},"ẻ":{"ha":851,"x_min":0,"x_max":0,"o":"m 85 354 b 435 724 85 593 220 724 b 767 385 649 724 767 592 l 767 324 l 203 324 b 435 81 206 176 292 81 b 643 222 570 81 632 156 l 753 222 l 753 201 b 435 -17 735 114 653 -17 b 85 354 221 -17 85 115 m 651 419 b 433 627 649 540 576 627 b 205 419 294 627 215 539 "},"ȇ":{"ha":851,"x_min":0,"x_max":0,"o":"m 85 354 b 435 724 85 593 220 724 b 767 385 649 724 767 592 l 767 324 l 203 324 b 435 81 206 176 292 81 b 643 222 570 81 632 156 l 753 222 l 753 201 b 435 -17 735 114 653 -17 b 85 354 221 -17 85 115 m 651 419 b 433 627 649 540 576 627 b 205 419 294 627 215 539 "},"ē":{"ha":851,"x_min":0,"x_max":0,"o":"m 85 354 b 435 724 85 593 220 724 b 767 385 649 724 767 592 l 767 324 l 203 324 b 435 81 206 176 292 81 b 643 222 570 81 632 156 l 753 222 l 753 201 b 435 -17 735 114 653 -17 b 85 354 221 -17 85 115 m 651 419 b 433 627 649 540 576 627 b 205 419 294 627 215 539 "},"ḗ":{"ha":851,"x_min":0,"x_max":0,"o":"m 85 354 b 435 724 85 593 220 724 b 767 385 649 724 767 592 l 767 324 l 203 324 b 435 81 206 176 292 81 b 643 222 570 81 632 156 l 753 222 l 753 201 b 435 -17 735 114 653 -17 b 85 354 221 -17 85 115 m 651 419 b 433 627 649 540 576 627 b 205 419 294 627 215 539 "},"ḕ":{"ha":851,"x_min":0,"x_max":0,"o":"m 85 354 b 435 724 85 593 220 724 b 767 385 649 724 767 592 l 767 324 l 203 324 b 435 81 206 176 292 81 b 643 222 570 81 632 156 l 753 222 l 753 201 b 435 -17 735 114 653 -17 b 85 354 221 -17 85 115 m 651 419 b 433 627 649 540 576 627 b 205 419 294 627 215 539 "},"ę":{"ha":851,"x_min":0,"x_max":0,"o":"m 85 354 b 435 724 85 593 220 724 b 767 385 649 724 767 592 l 767 324 l 203 324 b 435 81 206 176 292 81 b 643 222 570 81 632 156 l 753 222 l 753 201 b 435 -17 735 114 653 -17 b 85 354 221 -17 85 115 m 651 419 b 433 627 649 540 576 627 b 205 419 294 627 215 539 "},"ẽ":{"ha":851,"x_min":0,"x_max":0,"o":"m 85 354 b 435 724 85 593 220 724 b 767 385 649 724 767 592 l 767 324 l 203 324 b 435 81 206 176 292 81 b 643 222 570 81 632 156 l 753 222 l 753 201 b 435 -17 735 114 653 -17 b 85 354 221 -17 85 115 m 651 419 b 433 627 649 540 576 627 b 205 419 294 627 215 539 "},"ə":{"ha":851,"x_min":0,"x_max":0,"o":"m 85 354 b 435 724 85 593 220 724 b 767 385 649 724 767 592 l 767 324 l 203 324 b 435 81 206 176 292 81 b 643 222 570 81 632 156 l 753 222 l 753 201 b 435 -17 735 114 653 -17 b 85 354 221 -17 85 115 m 651 419 b 433 627 649 540 576 627 b 205 419 294 627 215 539 "},"f":{"ha":733,"x_min":0,"x_max":0,"o":"m 55 708 l 279 708 l 279 827 b 461 1000 279 942 345 1000 l 695 1000 l 695 902 l 413 902 l 401 891 l 401 708 l 679 708 l 679 608 l 401 608 l 401 0 l 279 0 l 279 608 l 55 608 "},"g":{"ha":881,"x_min":0,"x_max":0,"o":"m 761 39 b 428 -294 761 -175 651 -294 b 92 -63 208 -294 103 -183 l 92 -42 l 205 -42 b 425 -194 213 -119 274 -194 b 640 31 577 -194 640 -115 l 640 113 l 628 113 b 397 6 576 35 493 6 b 75 365 213 6 75 127 b 397 724 75 602 213 724 b 631 613 494 724 579 693 l 642 613 l 642 708 l 761 708 l 761 39 m 199 365 b 421 107 199 199 288 107 b 643 365 554 107 643 199 b 421 622 643 530 554 622 b 199 365 288 622 199 530 "},"ğ":{"ha":881,"x_min":0,"x_max":0,"o":"m 761 39 b 428 -294 761 -175 651 -294 b 92 -63 208 -294 103 -183 l 92 -42 l 205 -42 b 425 -194 213 -119 274 -194 b 640 31 577 -194 640 -115 l 640 113 l 628 113 b 397 6 576 35 493 6 b 75 365 213 6 75 127 b 397 724 75 602 213 724 b 631 613 494 724 579 693 l 642 613 l 642 708 l 761 708 l 761 39 m 199 365 b 421 107 199 199 288 107 b 643 365 554 107 643 199 b 421 622 643 530 554 622 b 199 365 288 622 199 530 "},"ǧ":{"ha":881,"x_min":0,"x_max":0,"o":"m 761 39 b 428 -294 761 -175 651 -294 b 92 -63 208 -294 103 -183 l 92 -42 l 205 -42 b 425 -194 213 -119 274 -194 b 640 31 577 -194 640 -115 l 640 113 l 628 113 b 397 6 576 35 493 6 b 75 365 213 6 75 127 b 397 724 75 602 213 724 b 631 613 494 724 579 693 l 642 613 l 642 708 l 761 708 l 761 39 m 199 365 b 421 107 199 199 288 107 b 643 365 554 107 643 199 b 421 622 643 530 554 622 b 199 365 288 622 199 530 "},"ĝ":{"ha":881,"x_min":0,"x_max":0,"o":"m 761 39 b 428 -294 761 -175 651 -294 b 92 -63 208 -294 103 -183 l 92 -42 l 205 -42 b 425 -194 213 -119 274 -194 b 640 31 577 -194 640 -115 l 640 113 l 628 113 b 397 6 576 35 493 6 b 75 365 213 6 75 127 b 397 724 75 602 213 724 b 631 613 494 724 579 693 l 642 613 l 642 708 l 761 708 l 761 39 m 199 365 b 421 107 199 199 288 107 b 643 365 554 107 643 199 b 421 622 643 530 554 622 b 199 365 288 622 199 530 "},"ģ":{"ha":881,"x_min":0,"x_max":0,"o":"m 761 39 b 428 -294 761 -175 651 -294 b 92 -63 208 -294 103 -183 l 92 -42 l 205 -42 b 425 -194 213 -119 274 -194 b 640 31 577 -194 640 -115 l 640 113 l 628 113 b 397 6 576 35 493 6 b 75 365 213 6 75 127 b 397 724 75 602 213 724 b 631 613 494 724 579 693 l 642 613 l 642 708 l 761 708 l 761 39 m 199 365 b 421 107 199 199 288 107 b 643 365 554 107 643 199 b 421 622 643 530 554 622 b 199 365 288 622 199 530 "},"ġ":{"ha":881,"x_min":0,"x_max":0,"o":"m 761 39 b 428 -294 761 -175 651 -294 b 92 -63 208 -294 103 -183 l 92 -42 l 205 -42 b 425 -194 213 -119 274 -194 b 640 31 577 -194 640 -115 l 640 113 l 628 113 b 397 6 576 35 493 6 b 75 365 213 6 75 127 b 397 724 75 602 213 724 b 631 613 494 724 579 693 l 642 613 l 642 708 l 761 708 l 761 39 m 199 365 b 421 107 199 199 288 107 b 643 365 554 107 643 199 b 421 622 643 530 554 622 b 199 365 288 622 199 530 "},"ḡ":{"ha":881,"x_min":0,"x_max":0,"o":"m 761 39 b 428 -294 761 -175 651 -294 b 92 -63 208 -294 103 -183 l 92 -42 l 205 -42 b 425 -194 213 -119 274 -194 b 640 31 577 -194 640 -115 l 640 113 l 628 113 b 397 6 576 35 493 6 b 75 365 213 6 75 127 b 397 724 75 602 213 724 b 631 613 494 724 579 693 l 642 613 l 642 708 l 761 708 l 761 39 m 199 365 b 421 107 199 199 288 107 b 643 365 554 107 643 199 b 421 622 643 530 554 622 b 199 365 288 622 199 530 "},"h":{"ha":874,"x_min":0,"x_max":0,"o":"m 244 1000 l 244 619 l 256 619 b 492 724 306 694 392 724 b 762 466 657 724 762 640 l 762 0 l 640 0 l 640 454 b 464 622 640 571 576 622 b 244 394 342 622 244 550 l 244 0 l 122 0 l 122 1000 "},"ħ":{"ha":874,"x_min":0,"x_max":0,"o":"m 244 1000 l 244 619 l 256 619 b 492 724 306 694 392 724 b 762 466 657 724 762 640 l 762 0 l 640 0 l 640 454 b 464 622 640 571 576 622 b 244 394 342 622 244 550 l 244 0 l 122 0 l 122 1000 "},"ḫ":{"ha":874,"x_min":0,"x_max":0,"o":"m 244 1000 l 244 619 l 256 619 b 492 724 306 694 392 724 b 762 466 657 724 762 640 l 762 0 l 640 0 l 640 454 b 464 622 640 571 576 622 b 244 394 342 622 244 550 l 244 0 l 122 0 l 122 1000 "},"ĥ":{"ha":874,"x_min":0,"x_max":0,"o":"m 244 1000 l 244 619 l 256 619 b 492 724 306 694 392 724 b 762 466 657 724 762 640 l 762 0 l 640 0 l 640 454 b 464 622 640 571 576 622 b 244 394 342 622 244 550 l 244 0 l 122 0 l 122 1000 "},"ḥ":{"ha":874,"x_min":0,"x_max":0,"o":"m 244 1000 l 244 619 l 256 619 b 492 724 306 694 392 724 b 762 466 657 724 762 640 l 762 0 l 640 0 l 640 454 b 464 622 640 571 576 622 b 244 394 342 622 244 550 l 244 0 l 122 0 l 122 1000 "},"i":{"ha":620,"x_min":0,"x_max":0,"o":"m 406 99 l 538 99 l 538 0 l 107 0 l 107 99 l 283 99 l 283 610 l 149 610 l 149 708 l 406 708 m 269 963 l 410 963 l 410 828 l 269 828 "},"ı":{"ha":620,"x_min":0,"x_max":0,"o":"m 406 99 l 538 99 l 538 0 l 107 0 l 107 99 l 283 99 l 283 610 l 149 610 l 149 708 l 406 708 m 269 963 l 410 963 l 410 828 l 269 828 "},"í":{"ha":620,"x_min":0,"x_max":0,"o":"m 406 99 l 538 99 l 538 0 l 107 0 l 107 99 l 283 99 l 283 610 l 149 610 l 149 708 l 406 708 m 269 963 l 410 963 l 410 828 l 269 828 "},"ĭ":{"ha":620,"x_min":0,"x_max":0,"o":"m 406 99 l 538 99 l 538 0 l 107 0 l 107 99 l 283 99 l 283 610 l 149 610 l 149 708 l 406 708 m 269 963 l 410 963 l 410 828 l 269 828 "},"î":{"ha":620,"x_min":0,"x_max":0,"o":"m 406 99 l 538 99 l 538 0 l 107 0 l 107 99 l 283 99 l 283 610 l 149 610 l 149 708 l 406 708 m 269 963 l 410 963 l 410 828 l 269 828 "},"ȉ":{"ha":620,"x_min":0,"x_max":0,"o":"m 406 99 l 538 99 l 538 0 l 107 0 l 107 99 l 283 99 l 283 610 l 149 610 l 149 708 l 406 708 m 269 963 l 410 963 l 410 828 l 269 828 "},"ï":{"ha":620,"x_min":0,"x_max":0,"o":"m 406 99 l 538 99 l 538 0 l 107 0 l 107 99 l 283 99 l 283 610 l 149 610 l 149 708 l 406 708 m 269 963 l 410 963 l 410 828 l 269 828 "},"ḯ":{"ha":620,"x_min":0,"x_max":0,"o":"m 406 99 l 538 99 l 538 0 l 107 0 l 107 99 l 283 99 l 283 610 l 149 610 l 149 708 l 406 708 m 269 963 l 410 963 l 410 828 l 269 828 "},"ị":{"ha":620,"x_min":0,"x_max":0,"o":"m 406 99 l 538 99 l 538 0 l 107 0 l 107 99 l 283 99 l 283 610 l 149 610 l 149 708 l 406 708 m 269 963 l 410 963 l 410 828 l 269 828 "},"ì":{"ha":620,"x_min":0,"x_max":0,"o":"m 406 99 l 538 99 l 538 0 l 107 0 l 107 99 l 283 99 l 283 610 l 149 610 l 149 708 l 406 708 m 269 963 l 410 963 l 410 828 l 269 828 "},"ỉ":{"ha":620,"x_min":0,"x_max":0,"o":"m 406 99 l 538 99 l 538 0 l 107 0 l 107 99 l 283 99 l 283 610 l 149 610 l 149 708 l 406 708 m 269 963 l 410 963 l 410 828 l 269 828 "},"ȋ":{"ha":620,"x_min":0,"x_max":0,"o":"m 406 99 l 538 99 l 538 0 l 107 0 l 107 99 l 283 99 l 283 610 l 149 610 l 149 708 l 406 708 m 269 963 l 410 963 l 410 828 l 269 828 "},"ĳ":{"ha":620,"x_min":0,"x_max":0,"o":"m 406 99 l 538 99 l 538 0 l 107 0 l 107 99 l 283 99 l 283 610 l 149 610 l 149 708 l 406 708 m 269 963 l 410 963 l 410 828 l 269 828 "},"ī":{"ha":620,"x_min":0,"x_max":0,"o":"m 406 99 l 538 99 l 538 0 l 107 0 l 107 99 l 283 99 l 283 610 l 149 610 l 149 708 l 406 708 m 269 963 l 410 963 l 410 828 l 269 828 "},"į":{"ha":620,"x_min":0,"x_max":0,"o":"m 406 99 l 538 99 l 538 0 l 107 0 l 107 99 l 283 99 l 283 610 l 149 610 l 149 708 l 406 708 m 269 963 l 410 963 l 410 828 l 269 828 "},"ĩ":{"ha":620,"x_min":0,"x_max":0,"o":"m 406 99 l 538 99 l 538 0 l 107 0 l 107 99 l 283 99 l 283 610 l 149 610 l 149 708 l 406 708 m 269 963 l 410 963 l 410 828 l 269 828 "},"j":{"ha":622,"x_min":0,"x_max":0,"o":"m 312 -175 l 323 -164 l 323 610 l 131 610 l 131 708 l 445 708 l 445 -105 b 263 -278 445 -220 379 -278 l -3 -278 l -3 -175 m 314 963 l 455 963 l 455 828 l 314 828 "},"ȷ":{"ha":622,"x_min":0,"x_max":0,"o":"m 312 -175 l 323 -164 l 323 610 l 131 610 l 131 708 l 445 708 l 445 -105 b 263 -278 445 -220 379 -278 l -3 -278 l -3 -175 m 314 963 l 455 963 l 455 828 l 314 828 "},"ĵ":{"ha":622,"x_min":0,"x_max":0,"o":"m 312 -175 l 323 -164 l 323 610 l 131 610 l 131 708 l 445 708 l 445 -105 b 263 -278 445 -220 379 -278 l -3 -278 l -3 -175 m 314 963 l 455 963 l 455 828 l 314 828 "},"k":{"ha":839,"x_min":0,"x_max":0,"o":"m 256 1000 l 256 421 l 267 421 l 624 708 l 765 708 l 765 687 l 367 370 l 774 21 l 774 0 l 630 0 l 267 315 l 256 315 l 256 0 l 133 0 l 133 1000 "},"ķ":{"ha":839,"x_min":0,"x_max":0,"o":"m 256 1000 l 256 421 l 267 421 l 624 708 l 765 708 l 765 687 l 367 370 l 774 21 l 774 0 l 630 0 l 267 315 l 256 315 l 256 0 l 133 0 l 133 1000 "},"ĸ":{"ha":839,"x_min":0,"x_max":0,"o":"m 256 1000 l 256 421 l 267 421 l 624 708 l 765 708 l 765 687 l 367 370 l 774 21 l 774 0 l 630 0 l 267 315 l 256 315 l 256 0 l 133 0 l 133 1000 "},"l":{"ha":620,"x_min":0,"x_max":0,"o":"m 406 99 l 538 99 l 538 0 l 107 0 l 107 99 l 283 99 l 283 902 l 149 902 l 149 1000 l 406 1000 "},"ĺ":{"ha":620,"x_min":0,"x_max":0,"o":"m 406 99 l 538 99 l 538 0 l 107 0 l 107 99 l 283 99 l 283 902 l 149 902 l 149 1000 l 406 1000 "},"ľ":{"ha":620,"x_min":0,"x_max":0,"o":"m 406 99 l 538 99 l 538 0 l 107 0 l 107 99 l 283 99 l 283 902 l 149 902 l 149 1000 l 406 1000 "},"ļ":{"ha":620,"x_min":0,"x_max":0,"o":"m 406 99 l 538 99 l 538 0 l 107 0 l 107 99 l 283 99 l 283 902 l 149 902 l 149 1000 l 406 1000 "},"ŀ":{"ha":620,"x_min":0,"x_max":0,"o":"m 406 99 l 538 99 l 538 0 l 107 0 l 107 99 l 283 99 l 283 902 l 149 902 l 149 1000 l 406 1000 "},"ḷ":{"ha":620,"x_min":0,"x_max":0,"o":"m 406 99 l 538 99 l 538 0 l 107 0 l 107 99 l 283 99 l 283 902 l 149 902 l 149 1000 l 406 1000 "},"ḻ":{"ha":620,"x_min":0,"x_max":0,"o":"m 406 99 l 538 99 l 538 0 l 107 0 l 107 99 l 283 99 l 283 902 l 149 902 l 149 1000 l 406 1000 "},"ł":{"ha":620,"x_min":0,"x_max":0,"o":"m 406 99 l 538 99 l 538 0 l 107 0 l 107 99 l 283 99 l 283 902 l 149 902 l 149 1000 l 406 1000 "},"m":{"ha":1073,"x_min":0,"x_max":0,"o":"m 201 708 l 201 640 l 212 640 b 394 723 238 681 289 723 b 570 623 498 723 550 676 l 581 623 b 784 723 611 677 670 723 b 989 523 907 723 989 656 l 989 0 l 874 0 l 874 504 b 753 624 874 581 834 624 b 597 448 661 624 597 566 l 597 0 l 483 0 l 483 504 b 361 624 483 581 444 624 b 206 448 269 624 206 566 l 206 0 l 92 0 l 92 708 "},"ṃ":{"ha":1073,"x_min":0,"x_max":0,"o":"m 201 708 l 201 640 l 212 640 b 394 723 238 681 289 723 b 570 623 498 723 550 676 l 581 623 b 784 723 611 677 670 723 b 989 523 907 723 989 656 l 989 0 l 874 0 l 874 504 b 753 624 874 581 834 624 b 597 448 661 624 597 566 l 597 0 l 483 0 l 483 504 b 361 624 483 581 444 624 b 206 448 269 624 206 566 l 206 0 l 92 0 l 92 708 "},"n":{"ha":873,"x_min":0,"x_max":0,"o":"m 241 708 l 241 615 l 252 615 b 491 724 303 694 389 724 b 761 466 656 724 761 640 l 761 0 l 639 0 l 639 454 b 463 622 639 571 575 622 b 244 394 342 622 244 550 l 244 0 l 122 0 l 122 708 "},"ń":{"ha":873,"x_min":0,"x_max":0,"o":"m 241 708 l 241 615 l 252 615 b 491 724 303 694 389 724 b 761 466 656 724 761 640 l 761 0 l 639 0 l 639 454 b 463 622 639 571 575 622 b 244 394 342 622 244 550 l 244 0 l 122 0 l 122 708 "},"ň":{"ha":873,"x_min":0,"x_max":0,"o":"m 241 708 l 241 615 l 252 615 b 491 724 303 694 389 724 b 761 466 656 724 761 640 l 761 0 l 639 0 l 639 454 b 463 622 639 571 575 622 b 244 394 342 622 244 550 l 244 0 l 122 0 l 122 708 "},"ņ":{"ha":873,"x_min":0,"x_max":0,"o":"m 241 708 l 241 615 l 252 615 b 491 724 303 694 389 724 b 761 466 656 724 761 640 l 761 0 l 639 0 l 639 454 b 463 622 639 571 575 622 b 244 394 342 622 244 550 l 244 0 l 122 0 l 122 708 "},"ṅ":{"ha":873,"x_min":0,"x_max":0,"o":"m 241 708 l 241 615 l 252 615 b 491 724 303 694 389 724 b 761 466 656 724 761 640 l 761 0 l 639 0 l 639 454 b 463 622 639 571 575 622 b 244 394 342 622 244 550 l 244 0 l 122 0 l 122 708 "},"ṇ":{"ha":873,"x_min":0,"x_max":0,"o":"m 241 708 l 241 615 l 252 615 b 491 724 303 694 389 724 b 761 466 656 724 761 640 l 761 0 l 639 0 l 639 454 b 463 622 639 571 575 622 b 244 394 342 622 244 550 l 244 0 l 122 0 l 122 708 "},"ṉ":{"ha":873,"x_min":0,"x_max":0,"o":"m 241 708 l 241 615 l 252 615 b 491 724 303 694 389 724 b 761 466 656 724 761 640 l 761 0 l 639 0 l 639 454 b 463 622 639 571 575 622 b 244 394 342 622 244 550 l 244 0 l 122 0 l 122 708 "},"ñ":{"ha":873,"x_min":0,"x_max":0,"o":"m 241 708 l 241 615 l 252 615 b 491 724 303 694 389 724 b 761 466 656 724 761 640 l 761 0 l 639 0 l 639 454 b 463 622 639 571 575 622 b 244 394 342 622 244 550 l 244 0 l 122 0 l 122 708 "},"ŋ":{"ha":873,"x_min":0,"x_max":0,"o":"m 241 708 l 241 615 l 252 615 b 491 724 303 694 389 724 b 761 466 656 724 761 640 l 761 0 l 639 0 l 639 454 b 463 622 639 571 575 622 b 244 394 342 622 244 550 l 244 0 l 122 0 l 122 708 "},"o":{"ha":877,"x_min":0,"x_max":0,"o":"m 76 353 b 438 724 76 590 222 724 b 801 353 655 724 801 590 b 438 -17 801 117 655 -17 b 76 353 222 -17 76 117 m 201 353 b 438 83 201 180 294 83 b 676 353 583 83 676 180 b 438 625 676 528 583 625 b 201 353 294 625 201 528 "},"ó":{"ha":877,"x_min":0,"x_max":0,"o":"m 76 353 b 438 724 76 590 222 724 b 801 353 655 724 801 590 b 438 -17 801 117 655 -17 b 76 353 222 -17 76 117 m 201 353 b 438 83 201 180 294 83 b 676 353 583 83 676 180 b 438 625 676 528 583 625 b 201 353 294 625 201 528 "},"ŏ":{"ha":877,"x_min":0,"x_max":0,"o":"m 76 353 b 438 724 76 590 222 724 b 801 353 655 724 801 590 b 438 -17 801 117 655 -17 b 76 353 222 -17 76 117 m 201 353 b 438 83 201 180 294 83 b 676 353 583 83 676 180 b 438 625 676 528 583 625 b 201 353 294 625 201 528 "},"ô":{"ha":877,"x_min":0,"x_max":0,"o":"m 76 353 b 438 724 76 590 222 724 b 801 353 655 724 801 590 b 438 -17 801 117 655 -17 b 76 353 222 -17 76 117 m 201 353 b 438 83 201 180 294 83 b 676 353 583 83 676 180 b 438 625 676 528 583 625 b 201 353 294 625 201 528 "},"ố":{"ha":877,"x_min":0,"x_max":0,"o":"m 76 353 b 438 724 76 590 222 724 b 801 353 655 724 801 590 b 438 -17 801 117 655 -17 b 76 353 222 -17 76 117 m 201 353 b 438 83 201 180 294 83 b 676 353 583 83 676 180 b 438 625 676 528 583 625 b 201 353 294 625 201 528 "},"ộ":{"ha":877,"x_min":0,"x_max":0,"o":"m 76 353 b 438 724 76 590 222 724 b 801 353 655 724 801 590 b 438 -17 801 117 655 -17 b 76 353 222 -17 76 117 m 201 353 b 438 83 201 180 294 83 b 676 353 583 83 676 180 b 438 625 676 528 583 625 b 201 353 294 625 201 528 "},"ồ":{"ha":877,"x_min":0,"x_max":0,"o":"m 76 353 b 438 724 76 590 222 724 b 801 353 655 724 801 590 b 438 -17 801 117 655 -17 b 76 353 222 -17 76 117 m 201 353 b 438 83 201 180 294 83 b 676 353 583 83 676 180 b 438 625 676 528 583 625 b 201 353 294 625 201 528 "},"ổ":{"ha":877,"x_min":0,"x_max":0,"o":"m 76 353 b 438 724 76 590 222 724 b 801 353 655 724 801 590 b 438 -17 801 117 655 -17 b 76 353 222 -17 76 117 m 201 353 b 438 83 201 180 294 83 b 676 353 583 83 676 180 b 438 625 676 528 583 625 b 201 353 294 625 201 528 "},"ỗ":{"ha":877,"x_min":0,"x_max":0,"o":"m 76 353 b 438 724 76 590 222 724 b 801 353 655 724 801 590 b 438 -17 801 117 655 -17 b 76 353 222 -17 76 117 m 201 353 b 438 83 201 180 294 83 b 676 353 583 83 676 180 b 438 625 676 528 583 625 b 201 353 294 625 201 528 "},"ȍ":{"ha":877,"x_min":0,"x_max":0,"o":"m 76 353 b 438 724 76 590 222 724 b 801 353 655 724 801 590 b 438 -17 801 117 655 -17 b 76 353 222 -17 76 117 m 201 353 b 438 83 201 180 294 83 b 676 353 583 83 676 180 b 438 625 676 528 583 625 b 201 353 294 625 201 528 "},"ö":{"ha":877,"x_min":0,"x_max":0,"o":"m 76 353 b 438 724 76 590 222 724 b 801 353 655 724 801 590 b 438 -17 801 117 655 -17 b 76 353 222 -17 76 117 m 201 353 b 438 83 201 180 294 83 b 676 353 583 83 676 180 b 438 625 676 528 583 625 b 201 353 294 625 201 528 "},"ȫ":{"ha":877,"x_min":0,"x_max":0,"o":"m 76 353 b 438 724 76 590 222 724 b 801 353 655 724 801 590 b 438 -17 801 117 655 -17 b 76 353 222 -17 76 117 m 201 353 b 438 83 201 180 294 83 b 676 353 583 83 676 180 b 438 625 676 528 583 625 b 201 353 294 625 201 528 "},"ȱ":{"ha":877,"x_min":0,"x_max":0,"o":"m 76 353 b 438 724 76 590 222 724 b 801 353 655 724 801 590 b 438 -17 801 117 655 -17 b 76 353 222 -17 76 117 m 201 353 b 438 83 201 180 294 83 b 676 353 583 83 676 180 b 438 625 676 528 583 625 b 201 353 294 625 201 528 "},"ọ":{"ha":877,"x_min":0,"x_max":0,"o":"m 76 353 b 438 724 76 590 222 724 b 801 353 655 724 801 590 b 438 -17 801 117 655 -17 b 76 353 222 -17 76 117 m 201 353 b 438 83 201 180 294 83 b 676 353 583 83 676 180 b 438 625 676 528 583 625 b 201 353 294 625 201 528 "},"ò":{"ha":877,"x_min":0,"x_max":0,"o":"m 76 353 b 438 724 76 590 222 724 b 801 353 655 724 801 590 b 438 -17 801 117 655 -17 b 76 353 222 -17 76 117 m 201 353 b 438 83 201 180 294 83 b 676 353 583 83 676 180 b 438 625 676 528 583 625 b 201 353 294 625 201 528 "},"ỏ":{"ha":877,"x_min":0,"x_max":0,"o":"m 76 353 b 438 724 76 590 222 724 b 801 353 655 724 801 590 b 438 -17 801 117 655 -17 b 76 353 222 -17 76 117 m 201 353 b 438 83 201 180 294 83 b 676 353 583 83 676 180 b 438 625 676 528 583 625 b 201 353 294 625 201 528 "},"ơ":{"ha":877,"x_min":0,"x_max":0,"o":"m 76 353 b 438 724 76 590 222 724 b 801 353 655 724 801 590 b 438 -17 801 117 655 -17 b 76 353 222 -17 76 117 m 201 353 b 438 83 201 180 294 83 b 676 353 583 83 676 180 b 438 625 676 528 583 625 b 201 353 294 625 201 528 "},"ớ":{"ha":877,"x_min":0,"x_max":0,"o":"m 76 353 b 438 724 76 590 222 724 b 801 353 655 724 801 590 b 438 -17 801 117 655 -17 b 76 353 222 -17 76 117 m 201 353 b 438 83 201 180 294 83 b 676 353 583 83 676 180 b 438 625 676 528 583 625 b 201 353 294 625 201 528 "},"ợ":{"ha":877,"x_min":0,"x_max":0,"o":"m 76 353 b 438 724 76 590 222 724 b 801 353 655 724 801 590 b 438 -17 801 117 655 -17 b 76 353 222 -17 76 117 m 201 353 b 438 83 201 180 294 83 b 676 353 583 83 676 180 b 438 625 676 528 583 625 b 201 353 294 625 201 528 "},"ờ":{"ha":877,"x_min":0,"x_max":0,"o":"m 76 353 b 438 724 76 590 222 724 b 801 353 655 724 801 590 b 438 -17 801 117 655 -17 b 76 353 222 -17 76 117 m 201 353 b 438 83 201 180 294 83 b 676 353 583 83 676 180 b 438 625 676 528 583 625 b 201 353 294 625 201 528 "},"ở":{"ha":877,"x_min":0,"x_max":0,"o":"m 76 353 b 438 724 76 590 222 724 b 801 353 655 724 801 590 b 438 -17 801 117 655 -17 b 76 353 222 -17 76 117 m 201 353 b 438 83 201 180 294 83 b 676 353 583 83 676 180 b 438 625 676 528 583 625 b 201 353 294 625 201 528 "},"ỡ":{"ha":877,"x_min":0,"x_max":0,"o":"m 76 353 b 438 724 76 590 222 724 b 801 353 655 724 801 590 b 438 -17 801 117 655 -17 b 76 353 222 -17 76 117 m 201 353 b 438 83 201 180 294 83 b 676 353 583 83 676 180 b 438 625 676 528 583 625 b 201 353 294 625 201 528 "},"ő":{"ha":877,"x_min":0,"x_max":0,"o":"m 76 353 b 438 724 76 590 222 724 b 801 353 655 724 801 590 b 438 -17 801 117 655 -17 b 76 353 222 -17 76 117 m 201 353 b 438 83 201 180 294 83 b 676 353 583 83 676 180 b 438 625 676 528 583 625 b 201 353 294 625 201 528 "},"ȏ":{"ha":877,"x_min":0,"x_max":0,"o":"m 76 353 b 438 724 76 590 222 724 b 801 353 655 724 801 590 b 438 -17 801 117 655 -17 b 76 353 222 -17 76 117 m 201 353 b 438 83 201 180 294 83 b 676 353 583 83 676 180 b 438 625 676 528 583 625 b 201 353 294 625 201 528 "},"ō":{"ha":877,"x_min":0,"x_max":0,"o":"m 76 353 b 438 724 76 590 222 724 b 801 353 655 724 801 590 b 438 -17 801 117 655 -17 b 76 353 222 -17 76 117 m 201 353 b 438 83 201 180 294 83 b 676 353 583 83 676 180 b 438 625 676 528 583 625 b 201 353 294 625 201 528 "},"ṓ":{"ha":877,"x_min":0,"x_max":0,"o":"m 76 353 b 438 724 76 590 222 724 b 801 353 655 724 801 590 b 438 -17 801 117 655 -17 b 76 353 222 -17 76 117 m 201 353 b 438 83 201 180 294 83 b 676 353 583 83 676 180 b 438 625 676 528 583 625 b 201 353 294 625 201 528 "},"ṑ":{"ha":877,"x_min":0,"x_max":0,"o":"m 76 353 b 438 724 76 590 222 724 b 801 353 655 724 801 590 b 438 -17 801 117 655 -17 b 76 353 222 -17 76 117 m 201 353 b 438 83 201 180 294 83 b 676 353 583 83 676 180 b 438 625 676 528 583 625 b 201 353 294 625 201 528 "},"ǫ":{"ha":877,"x_min":0,"x_max":0,"o":"m 76 353 b 438 724 76 590 222 724 b 801 353 655 724 801 590 b 438 -17 801 117 655 -17 b 76 353 222 -17 76 117 m 201 353 b 438 83 201 180 294 83 b 676 353 583 83 676 180 b 438 625 676 528 583 625 b 201 353 294 625 201 528 "},"ø":{"ha":877,"x_min":0,"x_max":0,"o":"m 76 353 b 438 724 76 590 222 724 b 801 353 655 724 801 590 b 438 -17 801 117 655 -17 b 76 353 222 -17 76 117 m 201 353 b 438 83 201 180 294 83 b 676 353 583 83 676 180 b 438 625 676 528 583 625 b 201 353 294 625 201 528 "},"ǿ":{"ha":877,"x_min":0,"x_max":0,"o":"m 76 353 b 438 724 76 590 222 724 b 801 353 655 724 801 590 b 438 -17 801 117 655 -17 b 76 353 222 -17 76 117 m 201 353 b 438 83 201 180 294 83 b 676 353 583 83 676 180 b 438 625 676 528 583 625 b 201 353 294 625 201 528 "},"õ":{"ha":877,"x_min":0,"x_max":0,"o":"m 76 353 b 438 724 76 590 222 724 b 801 353 655 724 801 590 b 438 -17 801 117 655 -17 b 76 353 222 -17 76 117 m 201 353 b 438 83 201 180 294 83 b 676 353 583 83 676 180 b 438 625 676 528 583 625 b 201 353 294 625 201 528 "},"ṍ":{"ha":877,"x_min":0,"x_max":0,"o":"m 76 353 b 438 724 76 590 222 724 b 801 353 655 724 801 590 b 438 -17 801 117 655 -17 b 76 353 222 -17 76 117 m 201 353 b 438 83 201 180 294 83 b 676 353 583 83 676 180 b 438 625 676 528 583 625 b 201 353 294 625 201 528 "},"ṏ":{"ha":877,"x_min":0,"x_max":0,"o":"m 76 353 b 438 724 76 590 222 724 b 801 353 655 724 801 590 b 438 -17 801 117 655 -17 b 76 353 222 -17 76 117 m 201 353 b 438 83 201 180 294 83 b 676 353 583 83 676 180 b 438 625 676 528 583 625 b 201 353 294 625 201 528 "},"ȭ":{"ha":877,"x_min":0,"x_max":0,"o":"m 76 353 b 438 724 76 590 222 724 b 801 353 655 724 801 590 b 438 -17 801 117 655 -17 b 76 353 222 -17 76 117 m 201 353 b 438 83 201 180 294 83 b 676 353 583 83 676 180 b 438 625 676 528 583 625 b 201 353 294 625 201 528 "},"œ":{"ha":877,"x_min":0,"x_max":0,"o":"m 76 353 b 438 724 76 590 222 724 b 801 353 655 724 801 590 b 438 -17 801 117 655 -17 b 76 353 222 -17 76 117 m 201 353 b 438 83 201 180 294 83 b 676 353 583 83 676 180 b 438 625 676 528 583 625 b 201 353 294 625 201 528 "},"p":{"ha":885,"x_min":0,"x_max":0,"o":"m 118 708 l 237 708 l 237 610 l 248 610 b 487 724 301 692 387 724 b 811 353 671 724 811 599 b 487 -16 811 109 671 -16 b 251 94 389 -16 304 15 l 240 94 l 240 -278 l 118 -278 m 236 353 b 462 85 236 182 327 85 b 688 353 597 85 688 182 b 462 622 688 526 597 622 b 236 353 327 622 236 526 "},"þ":{"ha":885,"x_min":0,"x_max":0,"o":"m 118 708 l 237 708 l 237 610 l 248 610 b 487 724 301 692 387 724 b 811 353 671 724 811 599 b 487 -16 811 109 671 -16 b 251 94 389 -16 304 15 l 240 94 l 240 -278 l 118 -278 m 236 353 b 462 85 236 182 327 85 b 688 353 597 85 688 182 b 462 622 688 526 597 622 b 236 353 327 622 236 526 "},"q":{"ha":885,"x_min":0,"x_max":0,"o":"m 644 -278 l 644 94 l 633 94 b 398 -16 581 15 496 -16 b 74 353 214 -16 74 109 b 398 724 74 599 214 724 b 637 610 498 724 584 692 l 648 610 l 648 708 l 767 708 l 767 -278 m 197 353 b 423 85 197 182 288 85 b 649 353 558 85 649 182 b 423 622 649 526 558 622 b 197 353 288 622 197 526 "},"r":{"ha":728,"x_min":0,"x_max":0,"o":"m 276 708 l 276 608 l 288 608 b 496 710 315 667 369 710 l 663 710 l 663 606 l 499 606 b 280 363 346 606 280 525 l 280 0 l 158 0 l 158 708 "},"ŕ":{"ha":728,"x_min":0,"x_max":0,"o":"m 276 708 l 276 608 l 288 608 b 496 710 315 667 369 710 l 663 710 l 663 606 l 499 606 b 280 363 346 606 280 525 l 280 0 l 158 0 l 158 708 "},"ř":{"ha":728,"x_min":0,"x_max":0,"o":"m 276 708 l 276 608 l 288 608 b 496 710 315 667 369 710 l 663 710 l 663 606 l 499 606 b 280 363 346 606 280 525 l 280 0 l 158 0 l 158 708 "},"ŗ":{"ha":728,"x_min":0,"x_max":0,"o":"m 276 708 l 276 608 l 288 608 b 496 710 315 667 369 710 l 663 710 l 663 606 l 499 606 b 280 363 346 606 280 525 l 280 0 l 158 0 l 158 708 "},"ȑ":{"ha":728,"x_min":0,"x_max":0,"o":"m 276 708 l 276 608 l 288 608 b 496 710 315 667 369 710 l 663 710 l 663 606 l 499 606 b 280 363 346 606 280 525 l 280 0 l 158 0 l 158 708 "},"ṛ":{"ha":728,"x_min":0,"x_max":0,"o":"m 276 708 l 276 608 l 288 608 b 496 710 315 667 369 710 l 663 710 l 663 606 l 499 606 b 280 363 346 606 280 525 l 280 0 l 158 0 l 158 708 "},"ȓ":{"ha":728,"x_min":0,"x_max":0,"o":"m 276 708 l 276 608 l 288 608 b 496 710 315 667 369 710 l 663 710 l 663 606 l 499 606 b 280 363 346 606 280 525 l 280 0 l 158 0 l 158 708 "},"ṟ":{"ha":728,"x_min":0,"x_max":0,"o":"m 276 708 l 276 608 l 288 608 b 496 710 315 667 369 710 l 663 710 l 663 606 l 499 606 b 280 363 346 606 280 525 l 280 0 l 158 0 l 158 708 "},"s":{"ha":818,"x_min":0,"x_max":0,"o":"m 112 520 b 406 724 112 647 222 724 b 715 513 590 724 703 647 l 715 492 l 602 492 b 406 627 597 590 519 627 b 230 524 294 627 230 590 b 360 421 230 456 284 432 l 485 402 b 724 199 627 381 724 328 b 426 -16 724 72 622 -16 b 97 199 231 -16 108 72 l 97 220 l 211 220 b 426 81 219 124 306 81 b 606 193 546 81 606 125 b 459 301 606 261 550 288 l 333 320 b 112 520 201 340 112 395 "},"ś":{"ha":818,"x_min":0,"x_max":0,"o":"m 112 520 b 406 724 112 647 222 724 b 715 513 590 724 703 647 l 715 492 l 602 492 b 406 627 597 590 519 627 b 230 524 294 627 230 590 b 360 421 230 456 284 432 l 485 402 b 724 199 627 381 724 328 b 426 -16 724 72 622 -16 b 97 199 231 -16 108 72 l 97 220 l 211 220 b 426 81 219 124 306 81 b 606 193 546 81 606 125 b 459 301 606 261 550 288 l 333 320 b 112 520 201 340 112 395 "},"ṥ":{"ha":818,"x_min":0,"x_max":0,"o":"m 112 520 b 406 724 112 647 222 724 b 715 513 590 724 703 647 l 715 492 l 602 492 b 406 627 597 590 519 627 b 230 524 294 627 230 590 b 360 421 230 456 284 432 l 485 402 b 724 199 627 381 724 328 b 426 -16 724 72 622 -16 b 97 199 231 -16 108 72 l 97 220 l 211 220 b 426 81 219 124 306 81 b 606 193 546 81 606 125 b 459 301 606 261 550 288 l 333 320 b 112 520 201 340 112 395 "},"š":{"ha":818,"x_min":0,"x_max":0,"o":"m 112 520 b 406 724 112 647 222 724 b 715 513 590 724 703 647 l 715 492 l 602 492 b 406 627 597 590 519 627 b 230 524 294 627 230 590 b 360 421 230 456 284 432 l 485 402 b 724 199 627 381 724 328 b 426 -16 724 72 622 -16 b 97 199 231 -16 108 72 l 97 220 l 211 220 b 426 81 219 124 306 81 b 606 193 546 81 606 125 b 459 301 606 261 550 288 l 333 320 b 112 520 201 340 112 395 "},"ṧ":{"ha":818,"x_min":0,"x_max":0,"o":"m 112 520 b 406 724 112 647 222 724 b 715 513 590 724 703 647 l 715 492 l 602 492 b 406 627 597 590 519 627 b 230 524 294 627 230 590 b 360 421 230 456 284 432 l 485 402 b 724 199 627 381 724 328 b 426 -16 724 72 622 -16 b 97 199 231 -16 108 72 l 97 220 l 211 220 b 426 81 219 124 306 81 b 606 193 546 81 606 125 b 459 301 606 261 550 288 l 333 320 b 112 520 201 340 112 395 "},"ş":{"ha":818,"x_min":0,"x_max":0,"o":"m 112 520 b 406 724 112 647 222 724 b 715 513 590 724 703 647 l 715 492 l 602 492 b 406 627 597 590 519 627 b 230 524 294 627 230 590 b 360 421 230 456 284 432 l 485 402 b 724 199 627 381 724 328 b 426 -16 724 72 622 -16 b 97 199 231 -16 108 72 l 97 220 l 211 220 b 426 81 219 124 306 81 b 606 193 546 81 606 125 b 459 301 606 261 550 288 l 333 320 b 112 520 201 340 112 395 "},"ŝ":{"ha":818,"x_min":0,"x_max":0,"o":"m 112 520 b 406 724 112 647 222 724 b 715 513 590 724 703 647 l 715 492 l 602 492 b 406 627 597 590 519 627 b 230 524 294 627 230 590 b 360 421 230 456 284 432 l 485 402 b 724 199 627 381 724 328 b 426 -16 724 72 622 -16 b 97 199 231 -16 108 72 l 97 220 l 211 220 b 426 81 219 124 306 81 b 606 193 546 81 606 125 b 459 301 606 261 550 288 l 333 320 b 112 520 201 340 112 395 "},"ș":{"ha":818,"x_min":0,"x_max":0,"o":"m 112 520 b 406 724 112 647 222 724 b 715 513 590 724 703 647 l 715 492 l 602 492 b 406 627 597 590 519 627 b 230 524 294 627 230 590 b 360 421 230 456 284 432 l 485 402 b 724 199 627 381 724 328 b 426 -16 724 72 622 -16 b 97 199 231 -16 108 72 l 97 220 l 211 220 b 426 81 219 124 306 81 b 606 193 546 81 606 125 b 459 301 606 261 550 288 l 333 320 b 112 520 201 340 112 395 "},"ṡ":{"ha":818,"x_min":0,"x_max":0,"o":"m 112 520 b 406 724 112 647 222 724 b 715 513 590 724 703 647 l 715 492 l 602 492 b 406 627 597 590 519 627 b 230 524 294 627 230 590 b 360 421 230 456 284 432 l 485 402 b 724 199 627 381 724 328 b 426 -16 724 72 622 -16 b 97 199 231 -16 108 72 l 97 220 l 211 220 b 426 81 219 124 306 81 b 606 193 546 81 606 125 b 459 301 606 261 550 288 l 333 320 b 112 520 201 340 112 395 "},"ṣ":{"ha":818,"x_min":0,"x_max":0,"o":"m 112 520 b 406 724 112 647 222 724 b 715 513 590 724 703 647 l 715 492 l 602 492 b 406 627 597 590 519 627 b 230 524 294 627 230 590 b 360 421 230 456 284 432 l 485 402 b 724 199 627 381 724 328 b 426 -16 724 72 622 -16 b 97 199 231 -16 108 72 l 97 220 l 211 220 b 426 81 219 124 306 81 b 606 193 546 81 606 125 b 459 301 606 261 550 288 l 333 320 b 112 520 201 340 112 395 "},"ṩ":{"ha":818,"x_min":0,"x_max":0,"o":"m 112 520 b 406 724 112 647 222 724 b 715 513 590 724 703 647 l 715 492 l 602 492 b 406 627 597 590 519 627 b 230 524 294 627 230 590 b 360 421 230 456 284 432 l 485 402 b 724 199 627 381 724 328 b 426 -16 724 72 622 -16 b 97 199 231 -16 108 72 l 97 220 l 211 220 b 426 81 219 124 306 81 b 606 193 546 81 606 125 b 459 301 606 261 550 288 l 333 320 b 112 520 201 340 112 395 "},"ß":{"ha":818,"x_min":0,"x_max":0,"o":"m 112 520 b 406 724 112 647 222 724 b 715 513 590 724 703 647 l 715 492 l 602 492 b 406 627 597 590 519 627 b 230 524 294 627 230 590 b 360 421 230 456 284 432 l 485 402 b 724 199 627 381 724 328 b 426 -16 724 72 622 -16 b 97 199 231 -16 108 72 l 97 220 l 211 220 b 426 81 219 124 306 81 b 606 193 546 81 606 125 b 459 301 606 261 550 288 l 333 320 b 112 520 201 340 112 395 "},"t":{"ha":744,"x_min":0,"x_max":0,"o":"m 271 708 l 271 915 l 393 915 l 393 708 l 674 708 l 674 608 l 393 608 l 393 117 l 404 106 l 672 106 l 672 0 l 453 0 b 271 173 337 0 271 58 l 271 608 l 49 608 l 49 708 "},"ŧ":{"ha":744,"x_min":0,"x_max":0,"o":"m 271 708 l 271 915 l 393 915 l 393 708 l 674 708 l 674 608 l 393 608 l 393 117 l 404 106 l 672 106 l 672 0 l 453 0 b 271 173 337 0 271 58 l 271 608 l 49 608 l 49 708 "},"ť":{"ha":744,"x_min":0,"x_max":0,"o":"m 271 708 l 271 915 l 393 915 l 393 708 l 674 708 l 674 608 l 393 608 l 393 117 l 404 106 l 672 106 l 672 0 l 453 0 b 271 173 337 0 271 58 l 271 608 l 49 608 l 49 708 "},"ţ":{"ha":744,"x_min":0,"x_max":0,"o":"m 271 708 l 271 915 l 393 915 l 393 708 l 674 708 l 674 608 l 393 608 l 393 117 l 404 106 l 672 106 l 672 0 l 453 0 b 271 173 337 0 271 58 l 271 608 l 49 608 l 49 708 "},"ț":{"ha":744,"x_min":0,"x_max":0,"o":"m 271 708 l 271 915 l 393 915 l 393 708 l 674 708 l 674 608 l 393 608 l 393 117 l 404 106 l 672 106 l 672 0 l 453 0 b 271 173 337 0 271 58 l 271 608 l 49 608 l 49 708 "},"ẗ":{"ha":744,"x_min":0,"x_max":0,"o":"m 271 708 l 271 915 l 393 915 l 393 708 l 674 708 l 674 608 l 393 608 l 393 117 l 404 106 l 672 106 l 672 0 l 453 0 b 271 173 337 0 271 58 l 271 608 l 49 608 l 49 708 "},"ṭ":{"ha":744,"x_min":0,"x_max":0,"o":"m 271 708 l 271 915 l 393 915 l 393 708 l 674 708 l 674 608 l 393 608 l 393 117 l 404 106 l 672 106 l 672 0 l 453 0 b 271 173 337 0 271 58 l 271 608 l 49 608 l 49 708 "},"ṯ":{"ha":744,"x_min":0,"x_max":0,"o":"m 271 708 l 271 915 l 393 915 l 393 708 l 674 708 l 674 608 l 393 608 l 393 117 l 404 106 l 672 106 l 672 0 l 453 0 b 271 173 337 0 271 58 l 271 608 l 49 608 l 49 708 "},"u":{"ha":872,"x_min":0,"x_max":0,"o":"m 630 0 l 630 92 l 619 92 b 381 -16 568 14 483 -16 b 113 241 216 -16 113 67 l 113 708 l 235 708 l 235 253 b 409 86 235 137 297 86 b 626 313 531 86 626 158 l 626 708 l 749 708 l 749 0 "},"ú":{"ha":872,"x_min":0,"x_max":0,"o":"m 630 0 l 630 92 l 619 92 b 381 -16 568 14 483 -16 b 113 241 216 -16 113 67 l 113 708 l 235 708 l 235 253 b 409 86 235 137 297 86 b 626 313 531 86 626 158 l 626 708 l 749 708 l 749 0 "},"ŭ":{"ha":872,"x_min":0,"x_max":0,"o":"m 630 0 l 630 92 l 619 92 b 381 -16 568 14 483 -16 b 113 241 216 -16 113 67 l 113 708 l 235 708 l 235 253 b 409 86 235 137 297 86 b 626 313 531 86 626 158 l 626 708 l 749 708 l 749 0 "},"û":{"ha":872,"x_min":0,"x_max":0,"o":"m 630 0 l 630 92 l 619 92 b 381 -16 568 14 483 -16 b 113 241 216 -16 113 67 l 113 708 l 235 708 l 235 253 b 409 86 235 137 297 86 b 626 313 531 86 626 158 l 626 708 l 749 708 l 749 0 "},"ȕ":{"ha":872,"x_min":0,"x_max":0,"o":"m 630 0 l 630 92 l 619 92 b 381 -16 568 14 483 -16 b 113 241 216 -16 113 67 l 113 708 l 235 708 l 235 253 b 409 86 235 137 297 86 b 626 313 531 86 626 158 l 626 708 l 749 708 l 749 0 "},"ü":{"ha":872,"x_min":0,"x_max":0,"o":"m 630 0 l 630 92 l 619 92 b 381 -16 568 14 483 -16 b 113 241 216 -16 113 67 l 113 708 l 235 708 l 235 253 b 409 86 235 137 297 86 b 626 313 531 86 626 158 l 626 708 l 749 708 l 749 0 "},"ụ":{"ha":872,"x_min":0,"x_max":0,"o":"m 630 0 l 630 92 l 619 92 b 381 -16 568 14 483 -16 b 113 241 216 -16 113 67 l 113 708 l 235 708 l 235 253 b 409 86 235 137 297 86 b 626 313 531 86 626 158 l 626 708 l 749 708 l 749 0 "},"ù":{"ha":872,"x_min":0,"x_max":0,"o":"m 630 0 l 630 92 l 619 92 b 381 -16 568 14 483 -16 b 113 241 216 -16 113 67 l 113 708 l 235 708 l 235 253 b 409 86 235 137 297 86 b 626 313 531 86 626 158 l 626 708 l 749 708 l 749 0 "},"ủ":{"ha":872,"x_min":0,"x_max":0,"o":"m 630 0 l 630 92 l 619 92 b 381 -16 568 14 483 -16 b 113 241 216 -16 113 67 l 113 708 l 235 708 l 235 253 b 409 86 235 137 297 86 b 626 313 531 86 626 158 l 626 708 l 749 708 l 749 0 "},"ư":{"ha":872,"x_min":0,"x_max":0,"o":"m 630 0 l 630 92 l 619 92 b 381 -16 568 14 483 -16 b 113 241 216 -16 113 67 l 113 708 l 235 708 l 235 253 b 409 86 235 137 297 86 b 626 313 531 86 626 158 l 626 708 l 749 708 l 749 0 "},"ứ":{"ha":872,"x_min":0,"x_max":0,"o":"m 630 0 l 630 92 l 619 92 b 381 -16 568 14 483 -16 b 113 241 216 -16 113 67 l 113 708 l 235 708 l 235 253 b 409 86 235 137 297 86 b 626 313 531 86 626 158 l 626 708 l 749 708 l 749 0 "},"ự":{"ha":872,"x_min":0,"x_max":0,"o":"m 630 0 l 630 92 l 619 92 b 381 -16 568 14 483 -16 b 113 241 216 -16 113 67 l 113 708 l 235 708 l 235 253 b 409 86 235 137 297 86 b 626 313 531 86 626 158 l 626 708 l 749 708 l 749 0 "},"ừ":{"ha":872,"x_min":0,"x_max":0,"o":"m 630 0 l 630 92 l 619 92 b 381 -16 568 14 483 -16 b 113 241 216 -16 113 67 l 113 708 l 235 708 l 235 253 b 409 86 235 137 297 86 b 626 313 531 86 626 158 l 626 708 l 749 708 l 749 0 "},"ử":{"ha":872,"x_min":0,"x_max":0,"o":"m 630 0 l 630 92 l 619 92 b 381 -16 568 14 483 -16 b 113 241 216 -16 113 67 l 113 708 l 235 708 l 235 253 b 409 86 235 137 297 86 b 626 313 531 86 626 158 l 626 708 l 749 708 l 749 0 "},"ữ":{"ha":872,"x_min":0,"x_max":0,"o":"m 630 0 l 630 92 l 619 92 b 381 -16 568 14 483 -16 b 113 241 216 -16 113 67 l 113 708 l 235 708 l 235 253 b 409 86 235 137 297 86 b 626 313 531 86 626 158 l 626 708 l 749 708 l 749 0 "},"ű":{"ha":872,"x_min":0,"x_max":0,"o":"m 630 0 l 630 92 l 619 92 b 381 -16 568 14 483 -16 b 113 241 216 -16 113 67 l 113 708 l 235 708 l 235 253 b 409 86 235 137 297 86 b 626 313 531 86 626 158 l 626 708 l 749 708 l 749 0 "},"ȗ":{"ha":872,"x_min":0,"x_max":0,"o":"m 630 0 l 630 92 l 619 92 b 381 -16 568 14 483 -16 b 113 241 216 -16 113 67 l 113 708 l 235 708 l 235 253 b 409 86 235 137 297 86 b 626 313 531 86 626 158 l 626 708 l 749 708 l 749 0 "},"ū":{"ha":872,"x_min":0,"x_max":0,"o":"m 630 0 l 630 92 l 619 92 b 381 -16 568 14 483 -16 b 113 241 216 -16 113 67 l 113 708 l 235 708 l 235 253 b 409 86 235 137 297 86 b 626 313 531 86 626 158 l 626 708 l 749 708 l 749 0 "},"ṻ":{"ha":872,"x_min":0,"x_max":0,"o":"m 630 0 l 630 92 l 619 92 b 381 -16 568 14 483 -16 b 113 241 216 -16 113 67 l 113 708 l 235 708 l 235 253 b 409 86 235 137 297 86 b 626 313 531 86 626 158 l 626 708 l 749 708 l 749 0 "},"ų":{"ha":872,"x_min":0,"x_max":0,"o":"m 630 0 l 630 92 l 619 92 b 381 -16 568 14 483 -16 b 113 241 216 -16 113 67 l 113 708 l 235 708 l 235 253 b 409 86 235 137 297 86 b 626 313 531 86 626 158 l 626 708 l 749 708 l 749 0 "},"ů":{"ha":872,"x_min":0,"x_max":0,"o":"m 630 0 l 630 92 l 619 92 b 381 -16 568 14 483 -16 b 113 241 216 -16 113 67 l 113 708 l 235 708 l 235 253 b 409 86 235 137 297 86 b 626 313 531 86 626 158 l 626 708 l 749 708 l 749 0 "},"ũ":{"ha":872,"x_min":0,"x_max":0,"o":"m 630 0 l 630 92 l 619 92 b 381 -16 568 14 483 -16 b 113 241 216 -16 113 67 l 113 708 l 235 708 l 235 253 b 409 86 235 137 297 86 b 626 313 531 86 626 158 l 626 708 l 749 708 l 749 0 "},"ṹ":{"ha":872,"x_min":0,"x_max":0,"o":"m 630 0 l 630 92 l 619 92 b 381 -16 568 14 483 -16 b 113 241 216 -16 113 67 l 113 708 l 235 708 l 235 253 b 409 86 235 137 297 86 b 626 313 531 86 626 158 l 626 708 l 749 708 l 749 0 "},"v":{"ha":831,"x_min":0,"x_max":0,"o":"m 189 708 l 412 134 l 423 134 l 646 708 l 767 708 l 767 687 l 486 0 l 345 0 l 64 687 l 64 708 "},"w":{"ha":996,"x_min":0,"x_max":0,"o":"m 137 708 l 265 127 l 276 127 l 431 708 l 569 708 l 724 127 l 735 127 l 863 708 l 967 708 l 967 687 l 806 0 l 658 0 l 503 578 l 492 578 l 338 0 l 190 0 l 28 687 l 28 708 "},"ẃ":{"ha":996,"x_min":0,"x_max":0,"o":"m 137 708 l 265 127 l 276 127 l 431 708 l 569 708 l 724 127 l 735 127 l 863 708 l 967 708 l 967 687 l 806 0 l 658 0 l 503 578 l 492 578 l 338 0 l 190 0 l 28 687 l 28 708 "},"ŵ":{"ha":996,"x_min":0,"x_max":0,"o":"m 137 708 l 265 127 l 276 127 l 431 708 l 569 708 l 724 127 l 735 127 l 863 708 l 967 708 l 967 687 l 806 0 l 658 0 l 503 578 l 492 578 l 338 0 l 190 0 l 28 687 l 28 708 "},"ẅ":{"ha":996,"x_min":0,"x_max":0,"o":"m 137 708 l 265 127 l 276 127 l 431 708 l 569 708 l 724 127 l 735 127 l 863 708 l 967 708 l 967 687 l 806 0 l 658 0 l 503 578 l 492 578 l 338 0 l 190 0 l 28 687 l 28 708 "},"ẁ":{"ha":996,"x_min":0,"x_max":0,"o":"m 137 708 l 265 127 l 276 127 l 431 708 l 569 708 l 724 127 l 735 127 l 863 708 l 967 708 l 967 687 l 806 0 l 658 0 l 503 578 l 492 578 l 338 0 l 190 0 l 28 687 l 28 708 "},"x":{"ha":854,"x_min":0,"x_max":0,"o":"m 226 708 l 427 444 l 438 444 l 656 708 l 778 708 l 778 687 l 508 358 l 767 21 l 767 0 l 642 0 l 431 274 l 420 274 l 194 0 l 71 0 l 71 21 l 351 360 l 101 687 l 101 708 "},"y":{"ha":833,"x_min":0,"x_max":0,"o":"m 188 708 l 413 146 l 424 146 l 649 708 l 770 708 l 770 687 l 363 -278 l 242 -278 l 242 -257 l 353 0 l 63 687 l 63 708 "},"ý":{"ha":833,"x_min":0,"x_max":0,"o":"m 188 708 l 413 146 l 424 146 l 649 708 l 770 708 l 770 687 l 363 -278 l 242 -278 l 242 -257 l 353 0 l 63 687 l 63 708 "},"ŷ":{"ha":833,"x_min":0,"x_max":0,"o":"m 188 708 l 413 146 l 424 146 l 649 708 l 770 708 l 770 687 l 363 -278 l 242 -278 l 242 -257 l 353 0 l 63 687 l 63 708 "},"ÿ":{"ha":833,"x_min":0,"x_max":0,"o":"m 188 708 l 413 146 l 424 146 l 649 708 l 770 708 l 770 687 l 363 -278 l 242 -278 l 242 -257 l 353 0 l 63 687 l 63 708 "},"ẏ":{"ha":833,"x_min":0,"x_max":0,"o":"m 188 708 l 413 146 l 424 146 l 649 708 l 770 708 l 770 687 l 363 -278 l 242 -278 l 242 -257 l 353 0 l 63 687 l 63 708 "},"ỵ":{"ha":833,"x_min":0,"x_max":0,"o":"m 188 708 l 413 146 l 424 146 l 649 708 l 770 708 l 770 687 l 363 -278 l 242 -278 l 242 -257 l 353 0 l 63 687 l 63 708 "},"ỳ":{"ha":833,"x_min":0,"x_max":0,"o":"m 188 708 l 413 146 l 424 146 l 649 708 l 770 708 l 770 687 l 363 -278 l 242 -278 l 242 -257 l 353 0 l 63 687 l 63 708 "},"ỷ":{"ha":833,"x_min":0,"x_max":0,"o":"m 188 708 l 413 146 l 424 146 l 649 708 l 770 708 l 770 687 l 363 -278 l 242 -278 l 242 -257 l 353 0 l 63 687 l 63 708 "},"ȳ":{"ha":833,"x_min":0,"x_max":0,"o":"m 188 708 l 413 146 l 424 146 l 649 708 l 770 708 l 770 687 l 363 -278 l 242 -278 l 242 -257 l 353 0 l 63 687 l 63 708 "},"ỹ":{"ha":833,"x_min":0,"x_max":0,"o":"m 188 708 l 413 146 l 424 146 l 649 708 l 770 708 l 770 687 l 363 -278 l 242 -278 l 242 -257 l 353 0 l 63 687 l 63 708 "},"z":{"ha":817,"x_min":0,"x_max":0,"o":"m 713 708 l 712 619 l 253 97 l 721 97 l 721 0 l 99 0 l 99 89 l 558 610 l 113 610 l 113 708 "},"ź":{"ha":817,"x_min":0,"x_max":0,"o":"m 713 708 l 712 619 l 253 97 l 721 97 l 721 0 l 99 0 l 99 89 l 558 610 l 113 610 l 113 708 "},"ž":{"ha":817,"x_min":0,"x_max":0,"o":"m 713 708 l 712 619 l 253 97 l 721 97 l 721 0 l 99 0 l 99 89 l 558 610 l 113 610 l 113 708 "},"ż":{"ha":817,"x_min":0,"x_max":0,"o":"m 713 708 l 712 619 l 253 97 l 721 97 l 721 0 l 99 0 l 99 89 l 558 610 l 113 610 l 113 708 "},"ẓ":{"ha":817,"x_min":0,"x_max":0,"o":"m 713 708 l 712 619 l 253 97 l 721 97 l 721 0 l 99 0 l 99 89 l 558 610 l 113 610 l 113 708 "},"ﬁ":{"ha":1344,"x_min":0,"x_max":0,"o":"m 55 708 l 279 708 l 279 827 b 461 1000 279 942 345 1000 l 1129 1000 l 1129 901 l 413 901 l 401 890 l 401 708 l 1129 708 l 1129 99 l 1263 99 l 1263 0 l 831 0 l 831 99 l 1007 99 l 1007 608 l 401 608 l 401 0 l 279 0 l 279 608 l 55 608 "},"ﬂ":{"ha":1348,"x_min":0,"x_max":0,"o":"m 55 708 l 279 708 l 279 827 b 461 1000 279 942 345 1000 l 690 1000 l 690 901 l 413 901 l 401 890 l 401 708 l 674 708 l 674 608 l 401 608 l 401 0 l 279 0 l 279 608 l 55 608 m 835 99 l 1010 99 l 1010 902 l 876 902 l 876 1000 l 1133 1000 l 1133 99 l 1266 99 l 1266 0 l 835 0 "}," ":{"ha":645,"x_min":0,"x_max":0,"o":""},".":{"ha":619,"x_min":0,"x_max":0,"o":"m 385 157 l 385 0 l 234 0 l 234 157 "},",":{"ha":619,"x_min":0,"x_max":0,"o":"m 385 157 l 385 -45 b 251 -176 385 -135 340 -176 l 226 -176 l 226 -108 l 244 -108 b 311 -43 294 -108 311 -91 l 311 0 l 234 0 l 234 157 "},":":{"ha":619,"x_min":0,"x_max":0,"o":"m 385 707 l 385 550 l 234 550 l 234 707 m 234 157 l 385 157 l 385 0 l 234 0 "},";":{"ha":619,"x_min":0,"x_max":0,"o":"m 385 157 l 385 -45 b 251 -176 385 -135 340 -176 l 226 -176 l 226 -108 l 244 -108 b 311 -43 294 -108 311 -91 l 311 0 l 234 0 l 234 157 m 234 707 l 385 707 l 385 550 l 234 550 "},"!":{"ha":633,"x_min":0,"x_max":0,"o":"m 379 1000 l 379 820 l 358 267 l 275 267 l 253 820 l 253 1000 m 244 149 l 390 149 l 390 0 l 244 0 "},"?":{"ha":854,"x_min":0,"x_max":0,"o":"m 86 724 l 86 745 b 433 1017 90 919 230 1017 b 764 758 635 1017 765 919 b 563 483 764 604 663 539 l 549 474 b 481 353 500 446 481 420 l 481 267 l 363 267 l 363 359 b 471 551 363 453 390 504 l 493 563 b 640 756 578 613 640 660 b 430 917 640 857 562 917 b 205 724 298 917 206 857 m 349 149 l 494 149 l 494 0 l 349 0 "},"/":{"ha":772,"x_min":0,"x_max":0,"o":"m 641 1000 l 641 979 l 249 0 l 131 0 l 131 21 l 523 1000 "},"-":{"ha":741,"x_min":0,"x_max":0,"o":"m 569 408 l 569 310 l 172 310 l 172 408 "},"­":{"ha":741,"x_min":0,"x_max":0,"o":"m 569 408 l 569 310 l 172 310 l 172 408 "},"–":{"ha":894,"x_min":0,"x_max":0,"o":"m 765 408 l 765 310 l 128 310 l 128 408 "},"—":{"ha":1064,"x_min":0,"x_max":0,"o":"m 983 408 l 983 310 l 82 310 l 82 408 "},"(":{"ha":683,"x_min":0,"x_max":0,"o":"m 208 433 b 438 1081 208 744 316 942 l 545 1081 l 545 1060 b 325 433 425 908 325 724 b 545 -195 325 141 424 -42 l 545 -215 l 438 -215 b 208 433 316 -76 208 121 "},")":{"ha":683,"x_min":0,"x_max":0,"o":"m 475 433 b 244 -215 475 121 367 -76 l 138 -215 l 138 -195 b 358 433 258 -42 358 141 b 138 1060 358 724 258 908 l 138 1081 l 244 1081 b 475 433 367 942 475 744 "},"{":{"ha":758,"x_min":0,"x_max":0,"o":"m 39 483 l 174 483 b 294 602 258 483 294 517 l 294 907 b 475 1081 294 1023 360 1081 l 656 1081 l 656 984 l 422 984 l 410 973 l 410 606 b 274 440 410 501 364 444 l 274 426 b 410 259 364 421 410 364 l 410 -108 l 422 -119 l 656 -119 l 656 -215 l 475 -215 b 294 -42 360 -215 294 -158 l 294 263 b 174 383 294 349 258 383 l 39 383 "},"}":{"ha":758,"x_min":0,"x_max":0,"o":"m 719 383 l 584 383 b 465 263 500 383 465 349 l 465 -42 b 284 -215 465 -158 399 -215 l 103 -215 l 103 -119 l 337 -119 l 348 -108 l 348 259 b 485 426 348 364 394 421 l 485 440 b 348 606 394 444 348 501 l 348 973 l 337 984 l 103 984 l 103 1081 l 284 1081 b 465 907 399 1081 465 1023 l 465 602 b 584 483 465 517 500 483 l 719 483 "},"[":{"ha":683,"x_min":0,"x_max":0,"o":"m 581 1081 l 581 983 l 340 983 l 340 -118 l 581 -118 l 581 -215 l 224 -215 l 224 1081 "},"]":{"ha":683,"x_min":0,"x_max":0,"o":"m 103 -215 l 103 -118 l 343 -118 l 343 983 l 103 983 l 103 1081 l 460 1081 l 460 -215 "},"‚":{"ha":619,"x_min":0,"x_max":0,"o":"m 385 157 l 385 -45 b 251 -176 385 -135 340 -176 l 226 -176 l 226 -108 l 244 -108 b 311 -43 294 -108 311 -91 l 311 0 l 234 0 l 234 157 "},"„":{"ha":726,"x_min":0,"x_max":0,"o":"m 316 157 l 316 -40 b 183 -172 316 -130 272 -172 l 161 -172 l 161 -104 l 178 -104 b 244 -39 226 -104 244 -87 l 244 0 l 169 0 l 169 157 m 402 -104 l 418 -104 b 484 -39 467 -104 484 -87 l 484 0 l 410 0 l 410 157 l 557 157 l 557 -40 b 423 -172 557 -130 512 -172 l 402 -172 "},"“":{"ha":726,"x_min":0,"x_max":0,"o":"m 410 684 l 410 881 b 543 1013 410 971 454 1013 l 565 1013 l 565 945 l 548 945 b 482 880 499 945 482 928 l 482 841 l 556 841 l 556 684 m 169 881 b 303 1013 169 971 214 1013 l 324 1013 l 324 945 l 308 945 b 242 880 258 945 242 928 l 242 841 l 316 841 l 316 684 l 169 684 "},"”":{"ha":726,"x_min":0,"x_max":0,"o":"m 316 1000 l 316 803 b 183 672 316 713 272 672 l 161 672 l 161 739 l 178 739 b 244 804 226 739 244 756 l 244 843 l 169 843 l 169 1000 m 402 739 l 418 739 b 484 804 467 739 484 756 l 484 843 l 410 843 l 410 1000 l 557 1000 l 557 803 b 423 672 557 713 512 672 l 402 672 "},"‘":{"ha":619,"x_min":0,"x_max":0,"o":"m 235 685 l 235 887 b 368 1018 235 976 279 1018 l 393 1018 l 393 949 l 375 949 b 308 885 326 949 308 933 l 308 842 l 385 842 l 385 685 "},"’":{"ha":619,"x_min":0,"x_max":0,"o":"m 385 1000 l 385 798 b 251 667 385 708 340 667 l 226 667 l 226 735 l 244 735 b 311 800 294 735 311 752 l 311 843 l 234 843 l 234 1000 "},"\"":{"ha":706,"x_min":0,"x_max":0,"o":"m 210 699 l 192 979 l 192 1000 l 309 1000 l 309 979 l 296 699 m 397 1000 l 513 1000 l 513 979 l 497 699 l 410 699 l 397 979 "},"'":{"ha":606,"x_min":0,"x_max":0,"o":"m 258 699 l 243 979 l 243 1000 l 363 1000 l 363 979 l 347 699 "}}}
